<svg xmlns="http://www.w3.org/2000/svg" width="460.0" height="118.9" viewBox="0 0 460.0 118.9"><polygon points="209.00,25.17 209.00,27.33 209.00,21.51" fill="rgb(53,22,7)"/><polygon points="209.00,25.17 209.00,21.51 209.00,15.69" fill="rgb(53,22,7)"/><polygon points="209.00,10.78 209.00,15.69 209.00,10.93" fill="rgb(53,22,7)"/><polygon points="209.00,28.35 209.00,27.33 209.00,26.71" fill="rgb(53,22,7)"/><polygon points="209.00,29.99 209.00,27.33 209.00,28.35" fill="rgb(53,22,7)"/><polygon points="209.00,15.69 209.00,13.95 209.00,15.59" fill="rgb(53,22,7)"/><polygon points="209.00,13.95 209.00,15.69 209.00,12.31" fill="rgb(53,22,7)"/><polygon points="209.00,25.17 209.00,26.71 209.00,27.33" fill="rgb(53,22,7)"/><polygon points="209.00,27.33 209.00,29.99 209.00,31.52" fill="rgb(53,22,7)"/><polygon points="209.00,15.59 209.00,17.13 209.00,15.69" fill="rgb(53,22,7)"/><polygon points="209.00,12.31 209.00,15.69 209.00,10.78" fill="rgb(53,22,7)"/><polygon points="209.00,31.52 209.00,36.85 209.00,27.33" fill="rgb(53,22,7)"/><polygon points="209.00,15.69 209.00,17.13 209.00,25.17" fill="rgb(53,22,7)"/><polygon points="149.00,23.91 149.00,20.95 149.00,19.41" fill="rgb(117,56,24)"/><polygon points="149.00,20.95 149.00,19.31 149.00,19.41" fill="rgb(117,56,24)"/><polygon points="324.00,104.95 324.00,100.98 324.00,108.93" fill="rgb(117,56,24)"/><polygon points="149.00,20.95 149.00,23.91 149.00,22.59" fill="rgb(117,56,24)"/><polygon points="149.00,19.31 149.00,17.78 149.00,19.41" fill="rgb(117,56,24)"/><polygon points="324.00,108.93 324.00,106.59 324.00,104.95" fill="rgb(117,56,24)"/><polygon points="324.00,104.95 324.00,103.31 324.00,100.98" fill="rgb(117,56,24)"/><polygon points="324.00,10.78 324.00,9.98 324.00,17.93" fill="rgb(117,56,24)"/><polygon points="324.00,10.78 324.00,9.98 324.00,17.93" fill="rgb(117,56,24)"/><polygon points="364.00,17.93 364.00,9.98 364.00,10.78" fill="rgb(53,22,7)"/><polygon points="364.00,17.93 364.00,9.98 364.00,10.78" fill="rgb(53,22,7)"/><polygon points="364.00,108.93 364.00,100.98 364.00,101.78" fill="rgb(53,22,7)"/><polygon points="56.00,24.93 56.00,16.98 56.00,17.78" fill="rgb(53,22,7)"/><polygon points="16.00,17.78 16.00,16.98 16.00,24.93" fill="rgb(117,56,24)"/><polygon points="209.00,10.78 209.00,10.93 209.00,6.17" fill="rgb(53,22,7)"/><polygon points="149.00,22.59 149.00,23.91 149.00,24.13" fill="rgb(117,56,24)"/><polygon points="149.00,17.78 149.00,15.41 149.00,19.41" fill="rgb(117,56,24)"/><polygon points="324.00,108.13 324.00,106.59 324.00,108.93" fill="rgb(117,56,24)"/><polygon points="324.00,101.78 324.00,100.98 324.00,103.31" fill="rgb(117,56,24)"/><polygon points="324.00,17.93 324.00,17.13 324.00,10.78" fill="rgb(117,56,24)"/><polygon points="324.00,17.93 324.00,17.13 324.00,10.78" fill="rgb(117,56,24)"/><polygon points="364.00,10.78 364.00,17.13 364.00,17.93" fill="rgb(53,22,7)"/><polygon points="364.00,10.78 364.00,17.13 364.00,17.93" fill="rgb(53,22,7)"/><polygon points="364.00,101.78 364.00,108.13 364.00,108.93" fill="rgb(53,22,7)"/><polygon points="56.00,17.78 56.00,24.13 56.00,24.93" fill="rgb(53,22,7)"/><polygon points="16.00,24.93 16.00,24.13 16.00,17.78" fill="rgb(117,56,24)"/><polygon points="149.00,24.13 149.00,23.91 149.00,25.44" fill="rgb(117,56,24)"/><polygon points="324.00,101.78 324.00,100.46 324.00,100.98" fill="rgb(117,56,24)"/><polygon points="324.00,108.93 324.00,109.44 324.00,108.13" fill="rgb(117,56,24)"/><polygon points="404.00,17.13 404.00,10.78 404.00,13.95" fill="rgb(53,22,7)"/><polygon points="404.00,17.13 404.00,10.78 404.00,13.95" fill="rgb(53,22,7)"/><polygon points="404.00,108.13 404.00,101.78 404.00,104.95" fill="rgb(53,22,7)"/><polygon points="149.00,15.41 149.00,17.78 149.00,16.46" fill="rgb(117,56,24)"/><polygon points="209.00,36.85 209.00,31.52 209.00,32.84" fill="rgb(53,22,7)"/><polygon points="209.00,9.46 209.00,10.78 209.00,6.17" fill="rgb(53,22,7)"/><polygon points="209.00,18.44 209.00,25.17 209.00,17.13" fill="rgb(53,22,7)"/><polygon points="149.00,26.45 149.00,25.44 149.00,23.91" fill="rgb(117,56,24)"/><polygon points="149.00,26.45 149.00,23.91 149.00,26.12" fill="rgb(117,56,24)"/><polygon points="324.00,100.98 324.00,100.46 324.00,99.45" fill="rgb(117,56,24)"/><polygon points="324.00,109.44 324.00,108.93 324.00,110.45" fill="rgb(117,56,24)"/><polygon points="209.00,23.86 209.00,25.17 209.00,18.44" fill="rgb(53,22,7)"/><polygon points="149.00,16.46 149.00,15.45 149.00,15.41" fill="rgb(117,56,24)"/><polygon points="209.00,36.85 209.00,32.84 209.00,33.85" fill="rgb(53,22,7)"/><polygon points="209.00,6.17 209.00,8.45 209.00,9.46" fill="rgb(53,22,7)"/><polygon points="324.00,17.13 324.00,17.93 324.00,20.30" fill="rgb(117,56,24)"/><polygon points="324.00,17.13 324.00,17.93 324.00,20.30" fill="rgb(117,56,24)"/><polygon points="324.00,9.98 324.00,10.78 324.00,7.60" fill="rgb(117,56,24)"/><polygon points="324.00,9.98 324.00,10.78 324.00,7.60" fill="rgb(117,56,24)"/><polygon points="364.00,20.30 364.00,17.93 364.00,17.13" fill="rgb(53,22,7)"/><polygon points="364.00,20.30 364.00,17.93 364.00,17.13" fill="rgb(53,22,7)"/><polygon points="364.00,7.60 364.00,10.78 364.00,9.98" fill="rgb(53,22,7)"/><polygon points="364.00,7.60 364.00,10.78 364.00,9.98" fill="rgb(53,22,7)"/><polygon points="364.00,111.30 364.00,108.93 364.00,108.13" fill="rgb(53,22,7)"/><polygon points="364.00,98.60 364.00,101.78 364.00,100.98" fill="rgb(53,22,7)"/><polygon points="56.00,27.30 56.00,24.93 56.00,24.13" fill="rgb(53,22,7)"/><polygon points="56.00,14.60 56.00,17.78 56.00,16.98" fill="rgb(53,22,7)"/><polygon points="16.00,24.13 16.00,24.93 16.00,27.30" fill="rgb(117,56,24)"/><polygon points="16.00,16.98 16.00,17.78 16.00,14.60" fill="rgb(117,56,24)"/><polygon points="209.00,19.45 209.00,23.86 209.00,18.44" fill="rgb(53,22,7)"/><polygon points="6.00,20.95 6.00,17.78 6.00,24.13" fill="rgb(117,56,24)"/><polygon points="209.00,19.45 209.00,22.85 209.00,23.86" fill="rgb(53,22,7)"/><polygon points="193.22,34.49 209.00,36.85 209.00,36.85" fill="rgb(53,22,7)"/><polygon points="149.00,15.45 149.00,14.82 149.00,15.41" fill="rgb(117,56,24)"/><polygon points="209.00,33.85 209.00,34.48 209.00,36.85" fill="rgb(53,22,7)"/><polygon points="209.00,8.45 209.00,6.17 209.00,7.82" fill="rgb(53,22,7)"/><polygon points="404.00,13.95 404.00,18.72 404.00,17.13" fill="rgb(53,22,7)"/><polygon points="404.00,13.95 404.00,18.72 404.00,17.13" fill="rgb(53,22,7)"/><polygon points="404.00,9.19 404.00,13.95 404.00,10.78" fill="rgb(53,22,7)"/><polygon points="404.00,9.19 404.00,13.95 404.00,10.78" fill="rgb(53,22,7)"/><polygon points="404.00,104.95 404.00,109.72 404.00,108.13" fill="rgb(53,22,7)"/><polygon points="404.00,100.19 404.00,104.95 404.00,101.78" fill="rgb(53,22,7)"/><polygon points="324.00,99.45 324.00,97.00 324.00,100.98" fill="rgb(117,56,24)"/><polygon points="324.00,112.90 324.00,110.45 324.00,108.93" fill="rgb(117,56,24)"/><polygon points="149.00,14.82 149.00,13.90 149.00,15.41" fill="rgb(117,56,24)"/><polygon points="209.00,19.45 209.00,20.08 209.00,22.85" fill="rgb(53,22,7)"/><polygon points="444.00,13.95 444.00,17.13 444.00,13.95" fill="rgb(53,22,7)"/><polygon points="444.00,13.95 444.00,13.95 444.00,10.78" fill="rgb(53,22,7)"/><polygon points="444.00,13.95 444.00,17.13 444.00,13.95" fill="rgb(53,22,7)"/><polygon points="444.00,13.95 444.00,13.95 444.00,10.78" fill="rgb(53,22,7)"/><polygon points="444.00,104.95 444.00,108.13 444.00,104.95" fill="rgb(53,22,7)"/><polygon points="444.00,104.95 444.00,104.95 444.00,101.78" fill="rgb(53,22,7)"/><polygon points="149.00,26.45 149.00,26.12 149.00,28.90" fill="rgb(117,56,24)"/><polygon points="209.00,34.70 209.00,36.85 209.00,34.48" fill="rgb(53,22,7)"/><polygon points="209.00,7.82 209.00,6.17 209.00,7.60" fill="rgb(53,22,7)"/><polygon points="324.00,21.90 324.00,20.30 324.00,17.93" fill="rgb(117,56,24)"/><polygon points="324.00,21.90 324.00,20.30 324.00,17.93" fill="rgb(117,56,24)"/><polygon points="324.00,7.60 324.00,6.00 324.00,9.98" fill="rgb(117,56,24)"/><polygon points="324.00,7.60 324.00,6.00 324.00,9.98" fill="rgb(117,56,24)"/><polygon points="364.00,17.93 364.00,20.30 364.00,21.90" fill="rgb(53,22,7)"/><polygon points="364.00,17.93 364.00,20.30 364.00,21.90" fill="rgb(53,22,7)"/><polygon points="364.00,9.98 364.00,6.00 364.00,7.60" fill="rgb(53,22,7)"/><polygon points="364.00,9.98 364.00,6.00 364.00,7.60" fill="rgb(53,22,7)"/><polygon points="364.00,108.93 364.00,111.30 364.00,112.90" fill="rgb(53,22,7)"/><polygon points="364.00,100.98 364.00,97.00 364.00,98.60" fill="rgb(53,22,7)"/><polygon points="56.00,24.93 56.00,27.30 56.00,28.90" fill="rgb(53,22,7)"/><polygon points="16.00,28.90 16.00,27.30 16.00,24.93" fill="rgb(117,56,24)"/><polygon points="56.00,16.98 56.00,13.00 56.00,14.60" fill="rgb(53,22,7)"/><polygon points="16.00,14.60 16.00,13.00 16.00,16.98" fill="rgb(117,56,24)"/><polygon points="209.00,22.85 209.00,20.08 209.00,22.22" fill="rgb(53,22,7)"/><polygon points="209.00,34.70 209.00,36.85 209.00,36.85" fill="rgb(53,22,7)"/><polygon points="6.00,24.13 6.00,27.30 6.00,20.95" fill="rgb(117,56,24)"/><polygon points="6.00,20.95 6.00,14.60 6.00,17.78" fill="rgb(117,56,24)"/><polygon points="404.00,17.13 404.00,18.72 404.00,20.30" fill="rgb(53,22,7)"/><polygon points="404.00,17.13 404.00,18.72 404.00,20.30" fill="rgb(53,22,7)"/><polygon points="404.00,10.78 404.00,7.60 404.00,9.19" fill="rgb(53,22,7)"/><polygon points="404.00,10.78 404.00,7.60 404.00,9.19" fill="rgb(53,22,7)"/><polygon points="404.00,108.13 404.00,109.72 404.00,111.30" fill="rgb(53,22,7)"/><polygon points="404.00,101.78 404.00,98.60 404.00,100.19" fill="rgb(53,22,7)"/><polygon points="193.49,7.59 209.00,6.17 193.37,7.59" fill="rgb(150,84,42)"/><polygon points="149.00,28.90 149.00,27.08 149.00,26.45" fill="rgb(117,56,24)"/><polygon points="324.00,99.45 324.00,98.82 324.00,97.00" fill="rgb(117,56,24)"/><polygon points="324.00,111.08 324.00,110.45 324.00,112.90" fill="rgb(117,56,24)"/><polygon points="444.00,17.13 444.00,18.72 444.00,13.95" fill="rgb(53,22,7)"/><polygon points="444.00,9.19 444.00,10.78 444.00,13.95" fill="rgb(53,22,7)"/><polygon points="444.00,17.13 444.00,18.72 444.00,13.95" fill="rgb(53,22,7)"/><polygon points="444.00,9.19 444.00,10.78 444.00,13.95" fill="rgb(53,22,7)"/><polygon points="444.00,108.13 444.00,109.72 444.00,104.95" fill="rgb(53,22,7)"/><polygon points="444.00,100.19 444.00,101.78 444.00,104.95" fill="rgb(53,22,7)"/><polygon points="209.00,22.00 209.00,22.22 209.00,20.08" fill="rgb(53,22,7)"/><polygon points="454.00,13.95 454.00,13.95 454.00,17.13" fill="rgb(53,22,7)"/><polygon points="454.00,13.95 454.00,13.95 454.00,10.78" fill="rgb(53,22,7)"/><polygon points="454.00,13.95 454.00,13.95 454.00,17.13" fill="rgb(53,22,7)"/><polygon points="454.00,13.95 454.00,13.95 454.00,10.78" fill="rgb(53,22,7)"/><polygon points="454.00,104.95 454.00,104.95 454.00,108.13" fill="rgb(53,22,7)"/><polygon points="454.00,104.95 454.00,104.95 454.00,101.78" fill="rgb(53,22,7)"/><polygon points="149.00,14.82 149.00,13.03 149.00,13.90" fill="rgb(117,56,24)"/><polygon points="149.00,27.08 149.00,28.90 149.00,27.30" fill="rgb(117,56,24)"/><polygon points="209.00,20.30 209.00,22.00 209.00,20.08" fill="rgb(53,22,7)"/><polygon points="324.00,98.60 324.00,97.00 324.00,98.82" fill="rgb(117,56,24)"/><polygon points="324.00,112.90 324.00,111.30 324.00,111.08" fill="rgb(117,56,24)"/><polygon points="149.00,14.82 149.00,14.60 149.00,13.03" fill="rgb(117,56,24)"/><polygon points="171.60,31.80 149.00,28.90 177.74,32.69" fill="rgb(53,22,7)"/><polygon points="209.00,6.17 209.00,6.17 209.00,7.60" fill="rgb(53,22,7)"/><polygon points="193.37,7.59 179.83,8.74 193.49,7.59" fill="rgb(150,84,42)"/><polygon points="149.00,27.08 149.00,27.30 149.00,28.90" fill="rgb(117,56,24)"/><polygon points="226.35,34.48 209.00,34.70 226.35,34.70" fill="rgb(53,22,7)"/><polygon points="313.83,111.30 313.83,111.08 307.72,109.81" fill="rgb(53,22,7)"/><polygon points="324.00,111.30 324.00,112.90 324.00,111.08" fill="rgb(117,56,24)"/><polygon points="324.00,111.08 313.83,111.30 324.00,111.30" fill="rgb(53,22,7)"/><polygon points="276.04,91.41 241.63,42.65 275.86,91.54" fill="rgb(66,30,11)"/><polygon points="276.04,91.41 275.86,91.54 280.59,95.68" fill="rgb(53,22,7)"/><polygon points="241.63,42.65 241.81,42.53 238.30,39.73" fill="rgb(53,22,7)"/><polygon points="209.00,20.30 209.00,20.08 209.00,22.00" fill="rgb(53,22,7)"/><polygon points="209.00,20.30 324.00,20.30 209.00,20.08" fill="rgb(53,22,7)"/><polygon points="209.00,7.82 324.00,7.60 209.00,7.60" fill="rgb(157,90,46)"/><polygon points="149.00,27.30 149.00,27.08 56.00,27.30" fill="rgb(53,22,7)"/><polygon points="209.00,22.22 226.35,22.00 209.00,22.00" fill="rgb(157,90,46)"/><polygon points="149.00,14.82 149.00,14.60 56.00,14.60" fill="rgb(157,90,46)"/><polygon points="251.86,35.49 252.03,35.37 249.97,33.55" fill="rgb(100,47,20)"/><polygon points="251.86,35.49 286.26,84.25 252.03,35.37" fill="rgb(74,34,13)"/><polygon points="313.83,98.82 324.00,98.60 313.83,98.60" fill="rgb(157,90,46)"/><polygon points="229.03,22.65 226.35,22.00 226.35,22.22" fill="rgb(142,76,37)"/><polygon points="290.99,88.40 286.26,84.25 286.08,84.37" fill="rgb(100,47,20)"/><polygon points="313.83,98.82 313.83,98.60 307.72,97.11" fill="rgb(142,76,37)"/><polygon points="324.00,98.82 324.00,97.00 324.00,98.60" fill="rgb(117,56,24)"/><polygon points="149.00,14.82 149.00,13.03 149.00,14.60" fill="rgb(117,56,24)"/><polygon points="454.00,104.95 454.00,104.95 454.00,101.78" fill="rgb(53,22,7)"/><polygon points="454.00,104.95 454.00,104.95 454.00,108.13" fill="rgb(53,22,7)"/><polygon points="454.00,108.13 444.00,104.95 444.00,108.13" fill="rgb(63,28,10)"/><polygon points="444.00,104.95 454.00,101.78 444.00,101.78" fill="rgb(184,115,63)"/><polygon points="454.00,17.13 444.00,13.95 444.00,17.13" fill="rgb(63,28,10)"/><polygon points="444.00,13.95 454.00,10.78 444.00,10.78" fill="rgb(184,115,63)"/><polygon points="454.00,13.95 454.00,13.95 454.00,10.78" fill="rgb(53,22,7)"/><polygon points="454.00,13.95 454.00,13.95 454.00,17.13" fill="rgb(53,22,7)"/><polygon points="454.00,13.95 454.00,13.95 454.00,10.78" fill="rgb(53,22,7)"/><polygon points="454.00,13.95 454.00,13.95 454.00,17.13" fill="rgb(53,22,7)"/><polygon points="324.00,111.08 313.83,111.08 313.83,111.30" fill="rgb(53,22,7)"/><polygon points="276.04,91.41 241.81,42.53 241.63,42.65" fill="rgb(66,30,11)"/><polygon points="226.35,34.48 209.00,34.48 209.00,34.70" fill="rgb(53,22,7)"/><polygon points="209.00,22.22 209.00,22.00 209.00,20.08" fill="rgb(53,22,7)"/><polygon points="209.00,22.22 226.35,22.22 226.35,22.00" fill="rgb(157,90,46)"/><polygon points="251.86,35.49 286.08,84.37 286.26,84.25" fill="rgb(74,34,13)"/><polygon points="313.83,98.82 324.00,98.82 324.00,98.60" fill="rgb(157,90,46)"/><polygon points="209.00,6.17 193.49,7.59 209.00,6.17" fill="rgb(150,84,42)"/><polygon points="177.74,32.69 190.26,34.29 171.60,31.80" fill="rgb(53,22,7)"/><polygon points="247.90,31.74 250.51,36.44 249.97,33.55" fill="rgb(123,59,26)"/><polygon points="226.35,23.86 231.70,23.31 229.03,22.65" fill="rgb(159,92,47)"/><polygon points="293.38,94.03 298.29,94.80 292.28,89.52" fill="rgb(133,68,31)"/><polygon points="293.38,94.03 292.28,89.52 290.99,88.40" fill="rgb(133,68,31)"/><polygon points="234.97,36.81 234.49,34.27 231.70,36.01" fill="rgb(53,22,7)"/><polygon points="444.00,109.72 444.00,108.13 444.00,104.95" fill="rgb(53,22,7)"/><polygon points="444.00,101.78 444.00,100.19 444.00,104.95" fill="rgb(53,22,7)"/><polygon points="444.00,109.72 404.00,104.95 404.00,109.72" fill="rgb(63,28,10)"/><polygon points="404.00,104.95 444.00,100.19 404.00,100.19" fill="rgb(184,115,63)"/><polygon points="444.00,18.72 444.00,17.13 444.00,13.95" fill="rgb(53,22,7)"/><polygon points="444.00,10.78 444.00,9.19 444.00,13.95" fill="rgb(53,22,7)"/><polygon points="444.00,18.72 444.00,17.13 444.00,13.95" fill="rgb(53,22,7)"/><polygon points="444.00,10.78 444.00,9.19 444.00,13.95" fill="rgb(53,22,7)"/><polygon points="444.00,18.72 404.00,13.95 404.00,18.72" fill="rgb(63,28,10)"/><polygon points="404.00,13.95 444.00,9.19 404.00,9.19" fill="rgb(184,115,63)"/><polygon points="149.00,27.08 149.00,28.90 149.00,26.45" fill="rgb(117,56,24)"/><polygon points="300.33,98.18 307.72,97.11 306.06,96.70" fill="rgb(166,99,52)"/><polygon points="300.33,98.18 306.06,96.70 298.29,94.80" fill="rgb(166,99,52)"/><polygon points="313.83,110.45 307.72,109.81 313.83,111.08" fill="rgb(53,22,7)"/><polygon points="324.00,110.45 324.00,111.08 324.00,112.90" fill="rgb(117,56,24)"/><polygon points="276.04,91.41 280.59,95.68 276.56,91.05" fill="rgb(59,26,9)"/><polygon points="209.00,19.45 209.00,20.08 324.00,20.30" fill="rgb(53,22,7)"/><polygon points="324.00,7.60 209.00,7.82 209.00,8.45" fill="rgb(173,105,56)"/><polygon points="149.00,27.08 149.00,26.45 56.00,27.30" fill="rgb(53,22,7)"/><polygon points="149.00,14.82 56.00,14.60 149.00,15.45" fill="rgb(174,105,56)"/><polygon points="251.86,35.49 249.97,33.55 251.34,35.86" fill="rgb(135,70,32)"/><polygon points="226.35,22.85 229.03,22.65 226.35,22.22" fill="rgb(147,81,40)"/><polygon points="285.57,84.74 290.99,88.40 286.08,84.37" fill="rgb(116,56,24)"/><polygon points="324.00,97.00 324.00,98.82 324.00,99.45" fill="rgb(117,56,24)"/><polygon points="226.35,34.70 231.70,36.01 230.69,32.68" fill="rgb(53,22,7)"/><polygon points="149.00,13.03 149.00,14.82 149.00,15.45" fill="rgb(117,56,24)"/><polygon points="404.00,109.72 404.00,108.13 404.00,111.30" fill="rgb(53,22,7)"/><polygon points="404.00,111.30 364.00,108.13 364.00,111.30" fill="rgb(53,22,7)"/><polygon points="404.00,18.72 404.00,17.13 404.00,20.30" fill="rgb(53,22,7)"/><polygon points="404.00,18.72 404.00,17.13 404.00,20.30" fill="rgb(53,22,7)"/><polygon points="404.00,20.30 364.00,17.13 364.00,20.30" fill="rgb(53,22,7)"/><polygon points="404.00,101.78 404.00,100.19 404.00,98.60" fill="rgb(53,22,7)"/><polygon points="404.00,101.78 404.00,98.60 364.00,98.60" fill="rgb(179,110,59)"/><polygon points="404.00,10.78 404.00,9.19 404.00,7.60" fill="rgb(53,22,7)"/><polygon points="404.00,10.78 404.00,9.19 404.00,7.60" fill="rgb(53,22,7)"/><polygon points="404.00,10.78 404.00,7.60 364.00,7.60" fill="rgb(179,110,59)"/><polygon points="6.00,27.30 6.00,24.13 6.00,20.95" fill="rgb(117,56,24)"/><polygon points="16.00,27.30 6.00,24.13 6.00,27.30" fill="rgb(53,22,7)"/><polygon points="301.61,108.31 307.72,109.81 313.83,108.13" fill="rgb(53,22,7)"/><polygon points="278.46,89.71 280.59,95.68 285.32,99.83" fill="rgb(80,37,14)"/><polygon points="6.00,20.95 6.00,17.78 6.00,14.60" fill="rgb(117,56,24)"/><polygon points="16.00,17.78 16.00,14.60 6.00,14.60" fill="rgb(179,110,59)"/><polygon points="209.00,34.70 209.00,36.85 209.00,36.85" fill="rgb(53,22,7)"/><polygon points="239.45,35.77 234.97,36.81 237.49,39.02" fill="rgb(89,41,17)"/><polygon points="239.45,35.77 237.49,39.02 238.30,39.73" fill="rgb(89,41,17)"/><polygon points="244.80,32.25 247.90,31.74 244.36,28.64" fill="rgb(125,61,26)"/><polygon points="164.42,11.16 149.00,13.03 149.00,14.28" fill="rgb(186,116,63)"/><polygon points="236.26,24.43 231.70,23.31 231.60,26.28" fill="rgb(164,96,50)"/><polygon points="240.25,30.37 244.36,28.64 240.83,25.54" fill="rgb(136,71,33)"/><polygon points="285.32,99.83 292.42,106.06 289.28,97.92" fill="rgb(87,40,16)"/><polygon points="292.42,106.06 301.61,108.31 300.90,103.97" fill="rgb(53,22,7)"/><polygon points="306.96,99.96 313.83,98.82 307.72,97.11" fill="rgb(175,106,57)"/><polygon points="236.26,24.43 235.38,29.23 240.83,25.54" fill="rgb(171,103,55)"/><polygon points="454.00,108.13 454.00,104.95 444.00,104.95" fill="rgb(63,28,10)"/><polygon points="444.00,104.95 454.00,104.95 454.00,101.78" fill="rgb(184,115,63)"/><polygon points="454.00,17.13 454.00,13.95 444.00,13.95" fill="rgb(63,28,10)"/><polygon points="444.00,13.95 454.00,13.95 454.00,10.78" fill="rgb(184,115,63)"/><polygon points="324.00,110.45 313.83,111.08 324.00,111.08" fill="rgb(53,22,7)"/><polygon points="276.56,91.05 241.81,42.53 276.04,91.41" fill="rgb(92,43,18)"/><polygon points="226.35,33.85 209.00,34.48 226.35,34.48" fill="rgb(53,22,7)"/><polygon points="209.00,22.22 209.00,20.08 209.00,22.85" fill="rgb(53,22,7)"/><polygon points="209.00,22.85 226.35,22.22 209.00,22.22" fill="rgb(173,105,56)"/><polygon points="251.34,35.86 286.08,84.37 251.86,35.49" fill="rgb(100,47,20)"/><polygon points="313.83,99.45 324.00,98.82 313.83,98.82" fill="rgb(173,105,56)"/><polygon points="149.00,15.45 149.00,14.28 149.00,13.03" fill="rgb(117,56,24)"/><polygon points="230.69,32.68 226.35,34.48 226.35,34.70" fill="rgb(53,22,7)"/><polygon points="56.00,24.93 56.00,28.90 56.00,27.30" fill="rgb(53,22,7)"/><polygon points="56.00,28.90 16.00,24.93 16.00,28.90" fill="rgb(53,22,7)"/><polygon points="16.00,27.30 16.00,28.90 16.00,24.93" fill="rgb(117,56,24)"/><polygon points="56.00,16.98 56.00,14.60 56.00,13.00" fill="rgb(53,22,7)"/><polygon points="56.00,16.98 56.00,13.00 16.00,13.00" fill="rgb(179,110,59)"/><polygon points="16.00,13.00 16.00,14.60 16.00,16.98" fill="rgb(117,56,24)"/><polygon points="364.00,108.93 364.00,112.90 364.00,111.30" fill="rgb(53,22,7)"/><polygon points="364.00,17.93 364.00,21.90 364.00,20.30" fill="rgb(53,22,7)"/><polygon points="364.00,17.93 364.00,21.90 364.00,20.30" fill="rgb(53,22,7)"/><polygon points="364.00,100.98 364.00,98.60 364.00,97.00" fill="rgb(53,22,7)"/><polygon points="364.00,100.98 364.00,97.00 324.00,97.00" fill="rgb(179,110,59)"/><polygon points="364.00,9.98 364.00,7.60 364.00,6.00" fill="rgb(53,22,7)"/><polygon points="364.00,9.98 364.00,7.60 364.00,6.00" fill="rgb(53,22,7)"/><polygon points="364.00,9.98 364.00,6.00 324.00,6.00" fill="rgb(179,110,59)"/><polygon points="364.00,112.90 324.00,108.93 324.00,112.90" fill="rgb(53,22,7)"/><polygon points="364.00,21.90 324.00,17.93 324.00,21.90" fill="rgb(53,22,7)"/><polygon points="324.00,20.30 324.00,21.90 324.00,17.93" fill="rgb(117,56,24)"/><polygon points="324.00,20.30 324.00,21.90 324.00,17.93" fill="rgb(117,56,24)"/><polygon points="324.00,6.00 324.00,7.60 324.00,9.98" fill="rgb(117,56,24)"/><polygon points="324.00,6.00 324.00,7.60 324.00,9.98" fill="rgb(117,56,24)"/><polygon points="209.00,36.85 209.00,34.70 209.00,34.48" fill="rgb(53,22,7)"/><polygon points="209.00,7.82 209.00,7.60 209.00,6.17" fill="rgb(53,22,7)"/><polygon points="239.45,35.77 238.30,39.73 241.81,42.53" fill="rgb(100,47,20)"/><polygon points="149.00,26.45 149.00,28.90 149.00,26.15" fill="rgb(117,56,24)"/><polygon points="149.00,26.15 149.00,28.90 171.60,31.80" fill="rgb(53,22,7)"/><polygon points="307.72,109.81 313.83,110.45 313.83,109.44" fill="rgb(68,31,11)"/><polygon points="276.56,91.05 280.59,95.68 277.38,90.47" fill="rgb(70,32,12)"/><polygon points="249.97,33.55 250.51,36.44 251.34,35.86" fill="rgb(165,98,51)"/><polygon points="229.03,22.65 226.35,22.85 226.35,23.86" fill="rgb(135,70,32)"/><polygon points="293.38,94.03 290.99,88.40 285.57,84.74" fill="rgb(117,56,24)"/><polygon points="444.00,104.95 444.00,104.95 444.00,108.13" fill="rgb(53,22,7)"/><polygon points="444.00,104.95 444.00,101.78 444.00,104.95" fill="rgb(53,22,7)"/><polygon points="444.00,13.95 444.00,13.95 444.00,17.13" fill="rgb(53,22,7)"/><polygon points="444.00,13.95 444.00,10.78 444.00,13.95" fill="rgb(53,22,7)"/><polygon points="444.00,13.95 444.00,13.95 444.00,17.13" fill="rgb(53,22,7)"/><polygon points="444.00,13.95 444.00,10.78 444.00,13.95" fill="rgb(53,22,7)"/><polygon points="324.00,110.45 313.83,110.45 313.83,111.08" fill="rgb(53,22,7)"/><polygon points="276.56,91.05 242.33,42.16 241.81,42.53" fill="rgb(92,43,18)"/><polygon points="226.35,33.85 209.00,33.85 209.00,34.48" fill="rgb(53,22,7)"/><polygon points="209.00,20.08 209.00,19.45 209.00,22.85" fill="rgb(53,22,7)"/><polygon points="209.00,22.85 226.35,22.85 226.35,22.22" fill="rgb(173,105,56)"/><polygon points="251.34,35.86 285.57,84.74 286.08,84.37" fill="rgb(100,47,20)"/><polygon points="313.83,99.45 324.00,99.45 324.00,98.82" fill="rgb(173,105,56)"/><polygon points="209.00,19.45 324.00,20.30 324.00,17.13" fill="rgb(53,22,7)"/><polygon points="209.00,8.45 324.00,10.78 324.00,7.60" fill="rgb(179,110,59)"/><polygon points="149.00,26.45 56.00,24.13 56.00,27.30" fill="rgb(53,22,7)"/><polygon points="56.00,17.78 149.00,15.45 56.00,14.60" fill="rgb(179,110,60)"/><polygon points="180.51,11.26 179.83,8.74 164.42,11.16" fill="rgb(178,109,59)"/><polygon points="298.29,94.80 293.38,94.03 300.33,98.18" fill="rgb(139,73,35)"/><polygon points="306.96,99.96 307.72,97.11 300.33,98.18" fill="rgb(166,98,51)"/><polygon points="306.96,99.96 313.83,99.45 313.83,98.82" fill="rgb(173,104,55)"/><polygon points="444.00,109.72 444.00,104.95 404.00,104.95" fill="rgb(63,28,10)"/><polygon points="404.00,104.95 444.00,104.95 444.00,100.19" fill="rgb(184,115,63)"/><polygon points="444.00,18.72 444.00,13.95 404.00,13.95" fill="rgb(63,28,10)"/><polygon points="404.00,13.95 444.00,13.95 444.00,9.19" fill="rgb(184,115,63)"/><polygon points="231.70,36.01 234.49,34.27 230.69,32.68" fill="rgb(53,22,7)"/><polygon points="226.35,34.48 230.69,32.68 226.35,33.85" fill="rgb(53,22,7)"/><polygon points="307.72,109.81 313.83,109.44 313.83,108.13" fill="rgb(107,51,21)"/><polygon points="280.59,95.68 278.46,89.71 277.38,90.47" fill="rgb(73,33,12)"/><polygon points="249.43,37.19 250.51,36.44 247.90,31.74" fill="rgb(176,108,58)"/><polygon points="190.26,34.29 209.00,36.85 209.00,36.85" fill="rgb(53,22,7)"/><polygon points="324.00,112.90 324.00,108.93 324.00,110.45" fill="rgb(117,56,24)"/><polygon points="324.00,100.98 324.00,97.00 324.00,99.45" fill="rgb(117,56,24)"/><polygon points="404.00,104.95 404.00,108.13 404.00,109.72" fill="rgb(53,22,7)"/><polygon points="404.00,13.95 404.00,17.13 404.00,18.72" fill="rgb(53,22,7)"/><polygon points="404.00,13.95 404.00,17.13 404.00,18.72" fill="rgb(53,22,7)"/><polygon points="404.00,100.19 404.00,101.78 404.00,104.95" fill="rgb(53,22,7)"/><polygon points="404.00,9.19 404.00,10.78 404.00,13.95" fill="rgb(53,22,7)"/><polygon points="404.00,9.19 404.00,10.78 404.00,13.95" fill="rgb(53,22,7)"/><polygon points="239.45,35.77 234.49,34.27 234.97,36.81" fill="rgb(53,22,7)"/><polygon points="231.60,26.28 231.70,23.31 226.35,23.86" fill="rgb(158,91,47)"/><polygon points="209.00,33.85 209.00,36.85 209.00,34.48" fill="rgb(53,22,7)"/><polygon points="209.00,6.17 209.00,8.45 209.00,7.82" fill="rgb(53,22,7)"/><polygon points="242.33,42.16 239.45,35.77 241.81,42.53" fill="rgb(97,46,19)"/><polygon points="180.51,11.26 193.49,7.59 179.83,8.74" fill="rgb(182,112,61)"/><polygon points="324.00,110.45 313.83,109.44 313.83,110.45" fill="rgb(53,22,7)"/><polygon points="276.56,91.05 243.15,41.59 242.33,42.16" fill="rgb(115,55,24)"/><polygon points="226.35,33.85 209.00,32.84 209.00,33.85" fill="rgb(53,22,7)"/><polygon points="209.00,19.45 209.00,23.86 209.00,22.85" fill="rgb(53,22,7)"/><polygon points="226.35,23.86 226.35,22.85 209.00,22.85" fill="rgb(183,113,62)"/><polygon points="284.74,85.32 285.57,84.74 251.34,35.86" fill="rgb(122,59,25)"/><polygon points="324.00,100.46 324.00,99.45 313.83,99.45" fill="rgb(183,113,62)"/><polygon points="149.00,14.28 164.75,13.20 164.42,11.16" fill="rgb(186,116,63)"/><polygon points="404.00,111.30 404.00,108.13 364.00,108.13" fill="rgb(53,22,7)"/><polygon points="404.00,20.30 404.00,17.13 364.00,17.13" fill="rgb(53,22,7)"/><polygon points="404.00,101.78 364.00,98.60 364.00,101.78" fill="rgb(179,110,59)"/><polygon points="404.00,10.78 364.00,7.60 364.00,10.78" fill="rgb(179,110,59)"/><polygon points="16.00,27.30 16.00,24.13 6.00,24.13" fill="rgb(53,22,7)"/><polygon points="6.00,17.78 6.00,20.95 6.00,24.13" fill="rgb(117,56,24)"/><polygon points="16.00,17.78 6.00,14.60 6.00,17.78" fill="rgb(179,110,59)"/><polygon points="249.43,37.19 247.90,31.74 244.80,32.25" fill="rgb(117,56,24)"/><polygon points="240.25,30.37 244.80,32.25 244.36,28.64" fill="rgb(152,85,43)"/><polygon points="278.46,89.71 285.32,99.83 289.28,97.92" fill="rgb(83,38,15)"/><polygon points="313.83,108.13 300.90,103.97 301.61,108.31" fill="rgb(53,22,7)"/><polygon points="235.38,29.23 236.26,24.43 231.60,26.28" fill="rgb(148,81,40)"/><polygon points="324.00,110.45 324.00,109.44 313.83,109.44" fill="rgb(53,22,7)"/><polygon points="276.56,91.05 277.38,90.47 243.15,41.59" fill="rgb(115,55,24)"/><polygon points="226.35,33.85 226.35,32.84 209.00,32.84" fill="rgb(53,22,7)"/><polygon points="209.00,18.44 209.00,23.86 209.00,19.45" fill="rgb(53,22,7)"/><polygon points="226.35,23.86 209.00,22.85 209.00,23.86" fill="rgb(183,113,62)"/><polygon points="284.74,85.32 251.34,35.86 250.51,36.44" fill="rgb(122,59,25)"/><polygon points="324.00,100.46 313.83,99.45 313.83,100.46" fill="rgb(183,113,62)"/><polygon points="284.74,85.32 293.38,94.03 285.57,84.74" fill="rgb(135,70,32)"/><polygon points="313.83,99.45 306.96,99.96 313.83,100.46" fill="rgb(179,110,59)"/><polygon points="240.25,30.37 240.83,25.54 235.38,29.23" fill="rgb(170,102,54)"/><polygon points="16.00,24.93 16.00,24.13 16.00,27.30" fill="rgb(117,56,24)"/><polygon points="56.00,27.30 56.00,24.13 56.00,24.93" fill="rgb(53,22,7)"/><polygon points="16.00,17.78 16.00,16.98 16.00,14.60" fill="rgb(117,56,24)"/><polygon points="56.00,14.60 56.00,16.98 56.00,17.78" fill="rgb(53,22,7)"/><polygon points="364.00,111.30 364.00,108.13 364.00,108.93" fill="rgb(53,22,7)"/><polygon points="364.00,20.30 364.00,17.13 364.00,17.93" fill="rgb(53,22,7)"/><polygon points="364.00,20.30 364.00,17.13 364.00,17.93" fill="rgb(53,22,7)"/><polygon points="364.00,98.60 364.00,100.98 364.00,101.78" fill="rgb(53,22,7)"/><polygon points="364.00,7.60 364.00,9.98 364.00,10.78" fill="rgb(53,22,7)"/><polygon points="364.00,7.60 364.00,9.98 364.00,10.78" fill="rgb(53,22,7)"/><polygon points="324.00,17.93 324.00,17.13 324.00,20.30" fill="rgb(117,56,24)"/><polygon points="324.00,17.93 324.00,17.13 324.00,20.30" fill="rgb(117,56,24)"/><polygon points="324.00,10.78 324.00,9.98 324.00,7.60" fill="rgb(117,56,24)"/><polygon points="324.00,10.78 324.00,9.98 324.00,7.60" fill="rgb(117,56,24)"/><polygon points="292.42,106.06 300.90,103.97 289.28,97.92" fill="rgb(86,40,16)"/><polygon points="149.00,15.45 149.00,16.44 149.00,14.28" fill="rgb(117,56,24)"/><polygon points="230.69,32.68 226.35,32.84 226.35,33.85" fill="rgb(53,22,7)"/><polygon points="209.00,18.44 209.00,19.45 324.00,17.13" fill="rgb(53,22,7)"/><polygon points="209.00,9.46 324.00,10.78 209.00,8.45" fill="rgb(183,113,61)"/><polygon points="149.00,26.45 149.00,25.44 56.00,24.13" fill="rgb(53,22,7)"/><polygon points="149.00,15.45 56.00,17.78 149.00,16.46" fill="rgb(183,114,62)"/><polygon points="209.00,8.45 209.00,6.17 209.00,9.46" fill="rgb(53,22,7)"/><polygon points="209.00,36.85 209.00,33.85 209.00,32.84" fill="rgb(53,22,7)"/><polygon points="243.15,41.59 239.45,35.77 242.33,42.16" fill="rgb(109,52,22)"/><polygon points="56.00,28.90 56.00,24.93 16.00,24.93" fill="rgb(53,22,7)"/><polygon points="56.00,16.98 16.00,13.00 16.00,16.98" fill="rgb(179,110,59)"/><polygon points="364.00,112.90 364.00,108.93 324.00,108.93" fill="rgb(53,22,7)"/><polygon points="364.00,100.98 324.00,97.00 324.00,100.98" fill="rgb(179,110,59)"/><polygon points="364.00,21.90 364.00,17.93 324.00,17.93" fill="rgb(53,22,7)"/><polygon points="364.00,9.98 324.00,6.00 324.00,9.98" fill="rgb(179,110,59)"/><polygon points="171.60,31.80 163.62,28.00 149.00,26.15" fill="rgb(53,22,7)"/><polygon points="149.00,15.45 149.00,16.46 149.00,16.44" fill="rgb(117,56,24)"/><polygon points="313.83,109.44 324.00,109.44 324.00,108.13" fill="rgb(81,37,15)"/><polygon points="209.00,32.84 226.35,32.84 226.35,31.52" fill="rgb(81,37,15)"/><polygon points="243.15,41.59 277.38,90.47 278.46,89.71" fill="rgb(133,68,32)"/><polygon points="209.00,18.44 209.00,25.17 209.00,23.86" fill="rgb(53,22,7)"/><polygon points="226.35,23.86 209.00,23.86 209.00,25.17" fill="rgb(184,115,62)"/><polygon points="284.74,85.32 250.51,36.44 249.43,37.19" fill="rgb(138,72,34)"/><polygon points="324.00,100.46 313.83,100.46 313.83,101.78" fill="rgb(184,115,62)"/><polygon points="180.51,11.26 164.42,11.16 164.75,13.20" fill="rgb(185,115,63)"/><polygon points="283.66,86.07 293.38,94.03 284.74,85.32" fill="rgb(147,81,40)"/><polygon points="324.00,108.93 324.00,109.44 324.00,110.45" fill="rgb(117,56,24)"/><polygon points="324.00,100.46 324.00,100.98 324.00,99.45" fill="rgb(117,56,24)"/><polygon points="149.00,26.45 149.00,26.15 149.00,23.97" fill="rgb(117,56,24)"/><polygon points="313.83,101.78 313.83,100.46 306.96,99.96" fill="rgb(181,112,60)"/><polygon points="230.69,32.68 226.35,31.52 226.35,32.84" fill="rgb(86,40,16)"/><polygon points="149.00,25.44 149.00,26.45 149.00,23.97" fill="rgb(117,56,24)"/><polygon points="190.26,34.29 179.16,29.85 171.60,31.80" fill="rgb(57,25,8)"/><polygon points="209.00,18.44 324.00,17.13 209.00,17.13" fill="rgb(81,37,15)"/><polygon points="209.00,10.78 324.00,10.78 209.00,9.46" fill="rgb(184,115,62)"/><polygon points="209.00,17.13 209.00,25.17 209.00,18.44" fill="rgb(53,22,7)"/><polygon points="313.83,109.44 324.00,108.13 313.83,108.13" fill="rgb(81,37,15)"/><polygon points="243.15,41.59 278.46,89.71 244.23,40.83" fill="rgb(133,68,32)"/><polygon points="209.00,32.84 226.35,31.52 209.00,31.52" fill="rgb(81,37,15)"/><polygon points="56.00,24.13 149.00,25.44 149.00,24.13" fill="rgb(81,37,15)"/><polygon points="149.00,17.78 149.00,16.46 56.00,17.78" fill="rgb(184,115,62)"/><polygon points="226.35,23.86 209.00,25.17 226.35,25.17" fill="rgb(184,115,62)"/><polygon points="284.74,85.32 249.43,37.19 283.66,86.07" fill="rgb(138,72,34)"/><polygon points="324.00,100.46 313.83,101.78 324.00,101.78" fill="rgb(184,115,62)"/><polygon points="209.00,10.78 209.00,9.46 209.00,6.17" fill="rgb(53,22,7)"/><polygon points="209.00,36.85 209.00,32.84 209.00,31.52" fill="rgb(53,22,7)"/><polygon points="244.23,40.83 239.45,35.77 243.15,41.59" fill="rgb(124,60,26)"/><polygon points="289.28,97.92 300.33,98.18 293.38,94.03" fill="rgb(165,97,51)"/><polygon points="300.90,103.97 306.96,99.96 300.33,98.18" fill="rgb(166,98,51)"/><polygon points="404.00,108.13 404.00,104.95 404.00,101.78" fill="rgb(53,22,7)"/><polygon points="404.00,17.13 404.00,13.95 404.00,10.78" fill="rgb(53,22,7)"/><polygon points="404.00,17.13 404.00,13.95 404.00,10.78" fill="rgb(53,22,7)"/><polygon points="226.35,23.86 226.35,25.17 231.60,26.28" fill="rgb(180,110,60)"/><polygon points="158.50,16.32 164.75,13.20 149.00,14.28" fill="rgb(190,120,66)"/><polygon points="234.49,34.27 235.38,29.23 230.69,32.68" fill="rgb(128,64,29)"/><polygon points="283.66,86.07 289.28,97.92 293.38,94.03" fill="rgb(151,85,43)"/><polygon points="306.96,99.96 313.83,103.31 313.83,101.78" fill="rgb(178,109,59)"/><polygon points="239.45,35.77 240.25,30.37 234.49,34.27" fill="rgb(156,89,46)"/><polygon points="404.00,108.13 364.00,101.78 364.00,108.13" fill="rgb(154,87,44)"/><polygon points="404.00,17.13 364.00,10.78 364.00,17.13" fill="rgb(154,87,44)"/><polygon points="404.00,108.13 404.00,101.78 364.00,101.78" fill="rgb(154,87,44)"/><polygon points="404.00,17.13 404.00,10.78 364.00,10.78" fill="rgb(154,87,44)"/><polygon points="16.00,24.13 6.00,17.78 6.00,24.13" fill="rgb(154,87,44)"/><polygon points="16.00,24.13 16.00,17.78 6.00,17.78" fill="rgb(154,87,44)"/><polygon points="149.00,17.78 149.00,16.44 149.00,16.46" fill="rgb(117,56,24)"/><polygon points="149.00,14.28 149.00,16.44 158.50,16.32" fill="rgb(181,112,61)"/><polygon points="239.45,35.77 244.23,40.83 244.80,32.25" fill="rgb(153,86,43)"/><polygon points="226.35,29.99 226.35,31.52 230.69,32.68" fill="rgb(115,55,24)"/><polygon points="324.00,109.44 324.00,108.93 324.00,108.13" fill="rgb(117,56,24)"/><polygon points="324.00,101.78 324.00,100.98 324.00,100.46" fill="rgb(117,56,24)"/><polygon points="226.35,29.99 230.69,32.68 231.60,26.28" fill="rgb(132,67,31)"/><polygon points="313.83,103.31 306.96,99.96 300.90,103.97" fill="rgb(178,109,59)"/><polygon points="234.49,34.27 240.25,30.37 235.38,29.23" fill="rgb(127,63,28)"/><polygon points="209.00,15.59 209.00,17.13 324.00,17.13" fill="rgb(115,55,24)"/><polygon points="209.00,10.78 209.00,12.31 324.00,10.78" fill="rgb(178,109,58)"/><polygon points="313.83,108.13 324.00,108.13 324.00,106.59" fill="rgb(115,55,24)"/><polygon points="244.23,40.83 278.46,89.71 279.71,88.84" fill="rgb(146,80,39)"/><polygon points="209.00,31.52 226.35,31.52 226.35,29.99" fill="rgb(115,55,24)"/><polygon points="149.00,22.59 56.00,24.13 149.00,24.13" fill="rgb(115,55,24)"/><polygon points="226.35,25.17 209.00,25.17 209.00,26.71" fill="rgb(178,109,58)"/><polygon points="283.66,86.07 249.43,37.19 248.18,38.07" fill="rgb(148,82,41)"/><polygon points="149.00,19.31 149.00,17.78 56.00,17.78" fill="rgb(178,109,58)"/><polygon points="324.00,101.78 313.83,101.78 313.83,103.31" fill="rgb(178,109,58)"/><polygon points="230.69,32.68 235.38,29.23 231.60,26.28" fill="rgb(155,88,45)"/><polygon points="193.49,7.59 191.55,11.05 209.00,6.17" fill="rgb(189,119,65)"/><polygon points="240.25,30.37 239.45,35.77 244.80,32.25" fill="rgb(141,76,36)"/><polygon points="244.23,40.83 245.49,39.95 244.80,32.25" fill="rgb(169,101,53)"/><polygon points="249.43,37.19 244.80,32.25 248.18,38.07" fill="rgb(152,86,43)"/><polygon points="300.33,98.18 289.28,97.92 300.90,103.97" fill="rgb(163,96,50)"/><polygon points="149.00,23.97 149.00,24.13 149.00,25.44" fill="rgb(117,56,24)"/><polygon points="324.00,10.78 209.00,13.95 324.00,17.13" fill="rgb(153,87,44)"/><polygon points="149.00,20.95 56.00,17.78 56.00,24.13" fill="rgb(154,87,44)"/><polygon points="226.35,26.71 231.60,26.28 226.35,25.17" fill="rgb(176,107,58)"/><polygon points="171.60,31.80 179.16,29.85 163.62,28.00" fill="rgb(53,22,7)"/><polygon points="313.83,108.13 324.00,106.59 313.83,106.59" fill="rgb(115,55,24)"/><polygon points="244.23,40.83 279.71,88.84 245.49,39.95" fill="rgb(146,80,39)"/><polygon points="209.00,31.52 226.35,29.99 209.00,29.99" fill="rgb(115,55,24)"/><polygon points="226.35,25.17 209.00,26.71 226.35,26.71" fill="rgb(178,109,58)"/><polygon points="283.66,86.07 248.18,38.07 282.41,86.95" fill="rgb(148,82,41)"/><polygon points="324.00,101.78 313.83,103.31 324.00,103.31" fill="rgb(178,109,58)"/><polygon points="16.00,24.13 16.00,24.93 16.00,17.78" fill="rgb(117,56,24)"/><polygon points="56.00,17.78 56.00,24.93 56.00,24.13" fill="rgb(53,22,7)"/><polygon points="364.00,101.78 364.00,108.93 364.00,108.13" fill="rgb(53,22,7)"/><polygon points="364.00,10.78 364.00,17.93 364.00,17.13" fill="rgb(53,22,7)"/><polygon points="364.00,10.78 364.00,17.93 364.00,17.13" fill="rgb(53,22,7)"/><polygon points="324.00,17.13 324.00,17.93 324.00,10.78" fill="rgb(117,56,24)"/><polygon points="324.00,17.13 324.00,17.93 324.00,10.78" fill="rgb(117,56,24)"/><polygon points="289.28,97.92 279.71,88.84 278.46,89.71" fill="rgb(139,73,35)"/><polygon points="282.41,86.95 289.28,97.92 283.66,86.07" fill="rgb(147,81,40)"/><polygon points="313.83,108.13 313.83,106.59 300.90,103.97" fill="rgb(119,57,25)"/><polygon points="324.00,17.13 209.00,13.95 209.00,15.59" fill="rgb(142,77,37)"/><polygon points="209.00,12.31 209.00,13.95 324.00,10.78" fill="rgb(163,96,50)"/><polygon points="56.00,24.13 149.00,22.59 149.00,20.95" fill="rgb(143,77,37)"/><polygon points="149.00,20.95 149.00,19.31 56.00,17.78" fill="rgb(164,96,50)"/><polygon points="244.80,32.25 245.49,39.95 246.83,39.01" fill="rgb(166,98,51)"/><polygon points="246.83,39.01 248.18,38.07 244.80,32.25" fill="rgb(160,93,48)"/><polygon points="149.00,23.97 149.00,26.15 163.62,28.00" fill="rgb(53,22,7)"/><polygon points="191.55,11.05 193.49,7.59 180.51,11.26" fill="rgb(187,118,64)"/><polygon points="149.00,16.44 149.00,17.78 149.00,19.31" fill="rgb(117,56,24)"/><polygon points="190.26,34.29 209.00,36.85 209.00,32.09" fill="rgb(105,50,21)"/><polygon points="226.35,28.35 226.35,29.99 231.60,26.28" fill="rgb(134,69,32)"/><polygon points="226.35,26.71 226.35,28.35 231.60,26.28" fill="rgb(160,93,48)"/><polygon points="324.00,106.59 324.00,108.13 324.00,108.93" fill="rgb(117,56,24)"/><polygon points="324.00,100.98 324.00,101.78 324.00,103.31" fill="rgb(117,56,24)"/><polygon points="313.83,106.59 324.00,106.59 324.00,104.95" fill="rgb(142,77,37)"/><polygon points="245.49,39.95 279.71,88.84 281.06,87.89" fill="rgb(152,86,43)"/><polygon points="209.00,29.99 226.35,29.99 226.35,28.35" fill="rgb(142,77,37)"/><polygon points="209.00,26.71 226.35,28.35 226.35,26.71" fill="rgb(163,96,50)"/><polygon points="313.83,103.31 324.00,104.95 324.00,103.31" fill="rgb(163,96,50)"/><polygon points="248.18,38.07 281.06,87.89 282.41,86.95" fill="rgb(153,87,44)"/><polygon points="279.71,88.84 289.28,97.92 281.06,87.89" fill="rgb(151,84,42)"/><polygon points="281.06,87.89 289.28,97.92 282.41,86.95" fill="rgb(154,87,44)"/><polygon points="313.83,104.95 300.90,103.97 313.83,106.59" fill="rgb(143,78,38)"/><polygon points="313.83,103.31 300.90,103.97 313.83,104.95" fill="rgb(163,96,50)"/><polygon points="313.83,106.59 324.00,104.95 313.83,104.95" fill="rgb(142,77,37)"/><polygon points="245.49,39.95 281.06,87.89 246.83,39.01" fill="rgb(152,86,43)"/><polygon points="209.00,29.99 226.35,28.35 209.00,28.35" fill="rgb(142,77,37)"/><polygon points="209.00,26.71 209.00,28.35 226.35,28.35" fill="rgb(163,96,50)"/><polygon points="313.83,103.31 313.83,104.95 324.00,104.95" fill="rgb(163,96,50)"/><polygon points="248.18,38.07 246.83,39.01 281.06,87.89" fill="rgb(153,87,44)"/><polygon points="149.00,24.13 149.00,23.97 149.00,22.59" fill="rgb(117,56,24)"/><polygon points="209.00,10.78 209.00,6.17 209.00,10.93" fill="rgb(53,22,7)"/><polygon points="209.00,31.52 209.00,32.09 209.00,36.85" fill="rgb(53,22,7)"/><polygon points="16.00,16.98 16.00,17.78 16.00,24.93" fill="rgb(117,56,24)"/><polygon points="56.00,24.93 56.00,17.78 56.00,16.98" fill="rgb(53,22,7)"/><polygon points="364.00,108.93 364.00,101.78 364.00,100.98" fill="rgb(53,22,7)"/><polygon points="364.00,17.93 364.00,10.78 364.00,9.98" fill="rgb(53,22,7)"/><polygon points="364.00,17.93 364.00,10.78 364.00,9.98" fill="rgb(53,22,7)"/><polygon points="324.00,9.98 324.00,10.78 324.00,17.93" fill="rgb(117,56,24)"/><polygon points="324.00,9.98 324.00,10.78 324.00,17.93" fill="rgb(117,56,24)"/><polygon points="324.00,108.93 324.00,104.95 324.00,106.59" fill="rgb(117,56,24)"/><polygon points="324.00,103.31 324.00,104.95 324.00,100.98" fill="rgb(117,56,24)"/><polygon points="149.00,19.31 149.00,18.65 149.00,16.44" fill="rgb(117,56,24)"/><polygon points="324.00,104.95 324.00,108.93 324.00,100.98" fill="rgb(117,56,24)"/><polygon points="209.00,32.09 179.16,29.85 190.26,34.29" fill="rgb(75,34,13)"/><polygon points="149.00,20.95 149.00,22.59 149.00,20.10" fill="rgb(117,56,24)"/><polygon points="149.00,20.10 149.00,19.31 149.00,20.95" fill="rgb(117,56,24)"/><polygon points="180.51,11.26 164.75,13.20 171.01,16.17" fill="rgb(186,116,63)"/><polygon points="164.75,13.20 158.50,16.32 161.08,16.29" fill="rgb(186,116,63)"/><polygon points="56.00,24.93 16.00,16.98 16.00,24.93" fill="rgb(154,87,44)"/><polygon points="56.00,24.93 56.00,16.98 16.00,16.98" fill="rgb(154,87,44)"/><polygon points="364.00,108.93 364.00,100.98 324.00,100.98" fill="rgb(154,87,44)"/><polygon points="364.00,108.93 324.00,100.98 324.00,108.93" fill="rgb(154,87,44)"/><polygon points="364.00,17.93 364.00,9.98 324.00,9.98" fill="rgb(154,87,44)"/><polygon points="364.00,17.93 324.00,9.98 324.00,17.93" fill="rgb(154,87,44)"/><polygon points="149.00,18.65 158.50,16.32 149.00,16.44" fill="rgb(179,110,60)"/><polygon points="149.00,20.10 149.00,22.59 149.00,23.97" fill="rgb(117,56,24)"/><polygon points="149.00,19.31 149.00,20.10 149.00,18.65" fill="rgb(117,56,24)"/><polygon points="164.75,13.20 161.08,16.29 171.01,16.17" fill="rgb(186,116,63)"/><polygon points="209.00,17.13 209.00,15.69 209.00,25.17" fill="rgb(53,22,7)"/><polygon points="149.00,18.65 161.08,16.29 158.50,16.32" fill="rgb(179,110,60)"/><polygon points="163.62,28.00 161.08,24.65 149.00,23.97" fill="rgb(111,53,23)"/><polygon points="209.00,15.59 209.00,15.69 209.00,17.13" fill="rgb(53,22,7)"/><polygon points="209.00,15.69 209.00,12.31 209.00,10.78" fill="rgb(53,22,7)"/><polygon points="209.00,31.52 209.00,29.99 209.00,27.33" fill="rgb(53,22,7)"/><polygon points="209.00,26.71 209.00,25.17 209.00,27.33" fill="rgb(53,22,7)"/><polygon points="163.62,28.00 179.16,29.85 169.22,25.10" fill="rgb(116,56,24)"/><polygon points="149.00,18.65 161.92,18.54 161.08,16.29" fill="rgb(178,109,59)"/><polygon points="163.62,28.00 169.22,25.10 161.08,24.65" fill="rgb(111,53,23)"/><polygon points="180.51,11.26 171.01,16.17 179.00,16.07" fill="rgb(184,114,62)"/><polygon points="209.00,15.69 209.00,15.59 209.00,13.95" fill="rgb(53,22,7)"/><polygon points="209.00,13.95 209.00,12.31 209.00,15.69" fill="rgb(53,22,7)"/><polygon points="209.00,28.35 209.00,27.33 209.00,29.99" fill="rgb(53,22,7)"/><polygon points="209.00,27.33 209.00,28.35 209.00,26.71" fill="rgb(53,22,7)"/><polygon points="159.64,20.84 149.00,20.10 149.00,23.97" fill="rgb(145,79,38)"/><polygon points="149.00,20.10 159.64,20.84 149.00,18.65" fill="rgb(177,108,58)"/><polygon points="180.51,11.26 190.01,15.93 191.55,11.05" fill="rgb(183,113,61)"/><polygon points="161.92,18.54 171.01,16.17 161.08,16.29" fill="rgb(178,109,59)"/><polygon points="159.64,20.84 149.00,23.97 161.08,24.65" fill="rgb(146,80,39)"/><polygon points="161.92,18.54 149.00,18.65 159.64,20.84" fill="rgb(168,100,53)"/><polygon points="209.00,6.17 191.55,11.05 209.00,15.69" fill="rgb(183,114,62)"/><polygon points="209.00,10.78 209.00,10.93 209.00,15.69" fill="rgb(53,22,7)"/><polygon points="209.00,31.52 209.00,27.33 209.00,32.09" fill="rgb(53,22,7)"/><polygon points="209.00,6.17 209.00,15.69 209.00,10.93" fill="rgb(117,56,24)"/><polygon points="180.51,11.26 179.00,16.07 190.01,15.93" fill="rgb(184,114,62)"/><polygon points="179.16,29.85 173.17,25.32 169.22,25.10" fill="rgb(121,58,25)"/><polygon points="161.92,18.54 179.00,16.07 171.01,16.17" fill="rgb(178,109,59)"/><polygon points="167.13,22.82 159.64,20.84 161.08,24.65" fill="rgb(146,80,39)"/><polygon points="167.13,22.82 161.08,24.65 169.22,25.10" fill="rgb(143,77,37)"/><polygon points="209.00,32.09 189.11,26.21 179.16,29.85" fill="rgb(113,54,23)"/><polygon points="161.92,18.54 159.64,20.84 170.04,20.38" fill="rgb(166,99,52)"/><polygon points="179.16,29.85 184.83,25.97 173.17,25.32" fill="rgb(121,58,25)"/><polygon points="179.00,16.07 161.92,18.54 170.04,20.38" fill="rgb(167,99,52)"/><polygon points="167.13,22.82 169.22,25.10 173.17,25.32" fill="rgb(143,77,37)"/><polygon points="159.64,20.84 167.13,22.82 170.04,20.38" fill="rgb(155,88,45)"/><polygon points="179.16,29.85 189.11,26.21 184.83,25.97" fill="rgb(121,58,25)"/><polygon points="179.00,22.86 167.13,22.82 173.17,25.32" fill="rgb(145,79,39)"/><polygon points="170.04,20.38 167.13,22.82 179.00,22.86" fill="rgb(156,89,45)"/><polygon points="191.55,11.05 190.01,15.93 194.00,15.88" fill="rgb(180,111,60)"/><polygon points="184.48,19.48 179.00,16.07 170.04,20.38" fill="rgb(168,100,53)"/><polygon points="209.00,25.17 209.00,15.69 209.00,21.51" fill="rgb(53,22,7)"/><polygon points="209.00,25.17 209.00,21.51 209.00,27.33" fill="rgb(53,22,7)"/><polygon points="184.83,25.97 179.00,22.86 173.17,25.32" fill="rgb(148,82,41)"/><polygon points="184.48,19.48 190.01,15.93 179.00,16.07" fill="rgb(167,99,52)"/><polygon points="184.48,19.48 170.04,20.38 179.00,22.86" fill="rgb(157,90,46)"/><polygon points="209.00,32.09 196.92,26.65 189.11,26.21" fill="rgb(103,49,21)"/><polygon points="191.55,11.05 194.00,15.88 209.00,15.69" fill="rgb(180,111,60)"/><polygon points="184.48,19.48 194.00,15.88 190.01,15.93" fill="rgb(167,99,52)"/><polygon points="184.83,25.97 194.96,23.23 179.00,22.86" fill="rgb(150,84,42)"/><polygon points="179.00,22.86 194.96,23.23 184.48,19.48" fill="rgb(158,91,47)"/><polygon points="209.00,32.09 209.00,27.33 196.92,26.65" fill="rgb(103,49,21)"/><polygon points="194.96,23.23 184.83,25.97 189.11,26.21" fill="rgb(153,87,44)"/><polygon points="194.00,15.88 184.48,19.48 197.22,19.89" fill="rgb(162,94,49)"/><polygon points="197.22,19.89 184.48,19.48 194.96,23.23" fill="rgb(157,90,46)"/><polygon points="194.96,23.23 189.11,26.21 196.92,26.65" fill="rgb(153,87,44)"/><polygon points="197.22,19.89 209.00,15.69 194.00,15.88" fill="rgb(162,94,49)"/><polygon points="194.96,23.23 196.92,26.65 209.00,27.33" fill="rgb(153,87,44)"/><polygon points="194.96,23.23 209.00,21.51 197.22,19.89" fill="rgb(157,90,46)"/><polygon points="194.96,23.23 209.00,27.33 209.00,21.51" fill="rgb(156,89,45)"/><polygon points="209.00,15.69 197.22,19.89 209.00,21.51" fill="rgb(156,89,46)"/></svg>