<svg xmlns="http://www.w3.org/2000/svg" width="588.0" height="175.2" viewBox="0 0 588.0 175.2"><polygon points="258.00,56.96 258.00,23.50 258.00,11.13" fill="rgb(53,22,7)"/><polygon points="101.00,43.26 101.00,40.45 64.00,40.45" fill="rgb(178,109,58)"/><polygon points="101.00,43.26 64.00,40.45 64.00,43.26" fill="rgb(178,109,58)"/><polygon points="241.99,61.62 237.99,63.92 258.00,63.15" fill="rgb(180,111,60)"/><polygon points="64.00,43.26 64.00,46.07 101.00,43.26" fill="rgb(178,109,58)"/><polygon points="101.00,42.98 173.00,40.45 101.00,40.45" fill="rgb(178,109,58)"/><polygon points="64.00,42.98 64.00,40.45 23.00,40.45" fill="rgb(178,109,58)"/><polygon points="64.00,42.98 23.00,40.45 23.00,42.98" fill="rgb(178,109,58)"/><polygon points="101.00,43.26 64.00,46.07 64.00,48.88" fill="rgb(178,109,58)"/><polygon points="101.00,43.26 64.00,48.88 101.00,46.07" fill="rgb(178,109,58)"/><polygon points="101.00,42.98 101.00,45.51 173.00,44.15" fill="rgb(177,108,58)"/><polygon points="23.00,42.98 64.00,45.51 64.00,42.98" fill="rgb(178,109,58)"/><polygon points="173.00,44.15 101.00,45.51 173.00,47.60" fill="rgb(177,108,58)"/><polygon points="23.00,42.98 23.00,45.51 64.00,45.51" fill="rgb(178,109,58)"/><polygon points="101.00,46.07 64.00,48.88 64.00,51.70" fill="rgb(178,109,58)"/><polygon points="101.00,46.07 64.00,51.70 101.00,48.88" fill="rgb(178,109,58)"/><polygon points="492.00,154.21 492.00,156.45 532.00,156.45" fill="rgb(115,55,24)"/><polygon points="6.00,42.70 23.00,40.45 6.00,40.45" fill="rgb(178,109,58)"/><polygon points="173.00,50.05 173.00,39.77 173.00,29.84" fill="rgb(53,22,7)"/><polygon points="492.00,154.21 532.00,156.45 532.00,154.21" fill="rgb(115,55,24)"/><polygon points="6.00,42.70 23.00,42.70 23.00,40.45" fill="rgb(178,109,58)"/><polygon points="173.00,47.60 101.00,45.51 101.00,48.04" fill="rgb(177,108,58)"/><polygon points="64.00,48.04 64.00,45.51 23.00,45.51" fill="rgb(178,109,58)"/><polygon points="64.00,51.70 101.00,51.70 101.00,48.88" fill="rgb(178,109,58)"/><polygon points="64.00,48.04 23.00,45.51 23.00,48.04" fill="rgb(178,109,58)"/><polygon points="532.00,25.45 492.00,25.45 492.00,34.43" fill="rgb(178,109,58)"/><polygon points="6.00,44.94 23.00,42.70 6.00,42.70" fill="rgb(178,109,58)"/><polygon points="532.00,154.21 532.00,151.96 492.00,154.21" fill="rgb(115,55,24)"/><polygon points="173.00,47.60 101.00,48.04 173.00,50.56" fill="rgb(184,114,62)"/><polygon points="6.00,44.94 23.00,44.94 23.00,42.70" fill="rgb(178,109,58)"/><polygon points="492.00,154.21 532.00,151.96 532.00,149.72" fill="rgb(115,55,24)"/><polygon points="492.00,154.21 532.00,149.72 492.00,151.96" fill="rgb(115,55,24)"/><polygon points="64.00,50.56 64.00,48.04 23.00,48.04" fill="rgb(178,109,58)"/><polygon points="173.00,50.05 173.00,50.77 187.28,53.67" fill="rgb(162,95,49)"/><polygon points="203.23,55.82 187.28,53.67 191.48,56.42" fill="rgb(175,107,57)"/><polygon points="214.98,60.24 226.79,65.26 237.99,63.92" fill="rgb(173,104,56)"/><polygon points="23.00,47.19 23.00,44.94 6.00,44.94" fill="rgb(178,109,58)"/><polygon points="101.00,50.56 173.00,50.56 101.00,48.04" fill="rgb(178,109,58)"/><polygon points="64.00,50.56 23.00,48.04 23.00,50.56" fill="rgb(178,109,58)"/><polygon points="417.89,153.58 417.89,150.90 408.13,152.96" fill="rgb(117,57,24)"/><polygon points="492.00,150.90 417.89,153.58 492.00,153.58" fill="rgb(115,55,24)"/><polygon points="349.69,86.20 378.84,139.92 381.14,138.54" fill="rgb(146,80,39)"/><polygon points="307.05,62.08 258.00,62.08 258.00,64.76" fill="rgb(178,109,58)"/><polygon points="343.15,77.69 347.40,87.58 349.69,86.20" fill="rgb(150,83,42)"/><polygon points="101.00,51.70 64.00,51.70 64.00,52.86" fill="rgb(173,105,56)"/><polygon points="258.00,56.96 258.00,74.46 258.00,69.34" fill="rgb(53,22,7)"/><polygon points="258.00,56.96 258.00,11.13 258.00,6.00" fill="rgb(53,22,7)"/><polygon points="532.00,25.45 492.00,34.43 532.00,34.43" fill="rgb(178,109,58)"/><polygon points="23.00,47.19 6.00,44.94 6.00,47.19" fill="rgb(178,109,58)"/><polygon points="492.00,149.72 492.00,151.96 532.00,149.72" fill="rgb(115,55,24)"/><polygon points="390.89,142.47 386.41,150.83 398.56,154.50" fill="rgb(152,85,43)"/><polygon points="307.05,62.08 307.05,64.76 321.90,66.68" fill="rgb(174,105,56)"/><polygon points="258.00,31.03 492.00,31.03 258.00,28.34" fill="rgb(178,109,58)"/><polygon points="349.69,86.20 347.40,87.58 378.84,139.92" fill="rgb(146,80,39)"/><polygon points="307.05,62.08 258.00,64.76 307.05,64.76" fill="rgb(178,109,58)"/><polygon points="492.00,150.90 417.89,150.90 417.89,153.58" fill="rgb(115,55,24)"/><polygon points="335.33,76.49 343.15,77.69 334.58,64.72" fill="rgb(148,82,41)"/><polygon points="258.00,69.34 241.82,67.19 258.00,71.90" fill="rgb(163,95,50)"/><polygon points="173.00,50.77 173.00,51.49 187.28,53.67" fill="rgb(162,95,49)"/><polygon points="386.41,150.83 381.14,138.54 378.84,139.92" fill="rgb(152,86,43)"/><polygon points="532.00,149.72 492.00,147.47 492.00,149.72" fill="rgb(115,55,24)"/><polygon points="23.00,49.43 23.00,47.19 6.00,47.19" fill="rgb(178,109,58)"/><polygon points="214.98,60.24 191.48,56.42 210.42,61.29" fill="rgb(173,104,55)"/><polygon points="408.13,152.96 417.89,150.90 417.89,148.60" fill="rgb(80,37,14)"/><polygon points="347.40,87.58 343.15,77.69 345.42,88.77" fill="rgb(133,69,32)"/><polygon points="173.00,26.15 173.00,44.15 173.00,40.45" fill="rgb(53,22,7)"/><polygon points="173.00,26.15 173.00,40.45 173.00,36.75" fill="rgb(53,22,7)"/><polygon points="532.00,149.72 532.00,147.47 492.00,147.47" fill="rgb(115,55,24)"/><polygon points="23.00,49.43 6.00,47.19 6.00,49.43" fill="rgb(178,109,58)"/><polygon points="173.00,50.56 101.00,50.56 101.00,51.61" fill="rgb(173,105,56)"/><polygon points="23.00,50.56 64.00,51.61 64.00,50.56" fill="rgb(173,105,56)"/><polygon points="214.98,60.24 210.42,61.29 226.79,65.26" fill="rgb(173,104,55)"/><polygon points="307.05,64.76 307.05,67.06 321.90,66.68" fill="rgb(179,110,59)"/><polygon points="258.00,33.34 492.00,31.03 258.00,31.03" fill="rgb(184,115,62)"/><polygon points="64.00,24.55 64.00,51.70 64.00,40.45" fill="rgb(53,22,7)"/><polygon points="64.00,24.55 64.00,40.45 64.00,29.21" fill="rgb(53,22,7)"/><polygon points="492.00,148.60 417.89,150.90 492.00,150.90" fill="rgb(81,37,15)"/><polygon points="378.84,139.92 347.40,87.58 376.87,141.10" fill="rgb(134,69,32)"/><polygon points="307.05,64.76 258.00,64.76 258.00,67.06" fill="rgb(184,115,62)"/><polygon points="345.42,88.77 343.15,77.69 335.33,76.49" fill="rgb(152,85,43)"/><polygon points="386.41,150.83 378.84,139.92 376.87,141.10" fill="rgb(141,76,36)"/><polygon points="173.00,26.15 173.00,47.60 173.00,44.15" fill="rgb(53,22,7)"/><polygon points="173.00,26.15 173.00,36.75 173.00,33.30" fill="rgb(53,22,7)"/><polygon points="241.34,69.17 241.82,67.19 226.79,65.26" fill="rgb(168,100,53)"/><polygon points="492.00,148.60 417.89,148.60 417.89,150.90" fill="rgb(81,37,15)"/><polygon points="347.40,87.58 345.42,88.77 376.87,141.10" fill="rgb(134,69,32)"/><polygon points="307.05,64.76 258.00,67.06 307.05,67.06" fill="rgb(184,115,62)"/><polygon points="64.00,54.02 101.00,52.86 101.00,51.70" fill="rgb(173,105,56)"/><polygon points="64.00,54.02 101.00,51.70 64.00,52.86" fill="rgb(173,105,56)"/><polygon points="23.00,50.56 23.00,51.61 64.00,51.61" fill="rgb(173,105,56)"/><polygon points="408.30,145.71 408.13,152.96 417.89,148.60" fill="rgb(93,44,18)"/><polygon points="173.00,50.56 101.00,51.61 173.00,52.84" fill="rgb(182,113,61)"/><polygon points="492.00,147.47 532.00,147.47 492.00,146.54" fill="rgb(53,22,7)"/><polygon points="6.00,49.43 23.00,50.36 23.00,49.43" fill="rgb(173,105,56)"/><polygon points="101.00,26.15 101.00,50.56 101.00,40.45" fill="rgb(53,22,7)"/><polygon points="101.00,26.15 101.00,40.45 101.00,30.34" fill="rgb(53,22,7)"/><polygon points="23.00,26.15 23.00,50.56 23.00,40.45" fill="rgb(53,22,7)"/><polygon points="23.00,26.15 23.00,40.45 23.00,30.34" fill="rgb(53,22,7)"/><polygon points="241.34,69.17 258.00,71.90 241.82,67.19" fill="rgb(173,105,56)"/><polygon points="321.90,66.68 323.90,72.17 335.33,76.49" fill="rgb(155,88,45)"/><polygon points="197.82,59.73 210.42,61.29 191.48,56.42" fill="rgb(167,99,52)"/><polygon points="307.05,67.06 307.05,68.82 321.90,66.68" fill="rgb(179,110,59)"/><polygon points="492.00,31.03 258.00,33.34 258.00,35.11" fill="rgb(183,114,62)"/><polygon points="210.42,61.29 213.01,63.21 226.79,65.26" fill="rgb(165,97,51)"/><polygon points="173.00,26.15 173.00,50.56 173.00,47.60" fill="rgb(53,22,7)"/><polygon points="173.00,26.15 173.00,33.30 173.00,30.34" fill="rgb(53,22,7)"/><polygon points="6.00,49.43 6.00,50.36 23.00,50.36" fill="rgb(173,105,56)"/><polygon points="532.00,146.32 492.00,146.54 532.00,147.47" fill="rgb(53,22,7)"/><polygon points="258.00,36.60 258.00,28.34 258.00,25.45" fill="rgb(53,22,7)"/><polygon points="258.00,36.60 258.00,25.45 258.00,22.57" fill="rgb(53,22,7)"/><polygon points="258.00,70.31 258.00,56.33 258.00,59.20" fill="rgb(117,56,24)"/><polygon points="258.00,70.31 258.00,59.20 258.00,62.08" fill="rgb(117,56,24)"/><polygon points="492.00,143.75 492.00,153.58 492.00,156.45" fill="rgb(117,56,24)"/><polygon points="492.00,143.75 492.00,156.45 492.00,159.33" fill="rgb(117,56,24)"/><polygon points="335.33,76.49 343.91,89.68 345.42,88.77" fill="rgb(129,65,29)"/><polygon points="492.00,12.75 492.00,34.43 492.00,25.45" fill="rgb(53,22,7)"/><polygon points="492.00,12.75 492.00,25.45 492.00,16.47" fill="rgb(53,22,7)"/><polygon points="492.00,143.75 492.00,165.43 492.00,156.45" fill="rgb(53,22,7)"/><polygon points="492.00,143.75 492.00,156.45 492.00,147.47" fill="rgb(53,22,7)"/><polygon points="532.00,145.30 532.00,156.45 532.00,165.43" fill="rgb(117,56,24)"/><polygon points="532.00,145.30 532.00,147.47 532.00,156.45" fill="rgb(117,56,24)"/><polygon points="6.00,40.45 6.00,40.45 6.00,49.43" fill="rgb(117,56,24)"/><polygon points="23.00,26.15 23.00,40.45 23.00,49.43" fill="rgb(117,56,24)"/><polygon points="6.00,40.45 6.00,31.47 6.00,40.45" fill="rgb(117,56,24)"/><polygon points="23.00,26.15 23.00,31.47 23.00,40.45" fill="rgb(117,56,24)"/><polygon points="532.00,14.30 532.00,25.45 532.00,34.43" fill="rgb(117,56,24)"/><polygon points="532.00,14.30 532.00,16.47 532.00,25.45" fill="rgb(117,56,24)"/><polygon points="173.00,50.05 173.00,29.84 173.00,25.46" fill="rgb(53,22,7)"/><polygon points="492.00,146.83 417.89,148.60 492.00,148.60" fill="rgb(53,22,7)"/><polygon points="376.87,141.10 345.42,88.77 343.91,89.68" fill="rgb(116,56,24)"/><polygon points="307.05,67.06 258.00,67.06 258.00,68.82" fill="rgb(183,113,62)"/><polygon points="323.90,72.17 321.90,66.68 307.05,68.82" fill="rgb(177,108,58)"/><polygon points="258.00,36.60 258.00,31.03 258.00,28.34" fill="rgb(53,22,7)"/><polygon points="258.00,36.60 258.00,22.57 258.00,19.88" fill="rgb(53,22,7)"/><polygon points="197.82,59.73 213.01,63.21 210.42,61.29" fill="rgb(166,98,51)"/><polygon points="258.00,70.31 258.00,53.65 258.00,56.33" fill="rgb(117,56,24)"/><polygon points="258.00,70.31 258.00,62.08 258.00,64.76" fill="rgb(117,56,24)"/><polygon points="492.00,143.75 492.00,150.90 492.00,153.58" fill="rgb(117,56,24)"/><polygon points="492.00,143.75 492.00,159.33 492.00,162.01" fill="rgb(117,56,24)"/><polygon points="23.00,51.61 64.00,52.66 64.00,51.61" fill="rgb(173,105,56)"/><polygon points="101.00,51.61 101.00,52.66 173.00,52.84" fill="rgb(173,104,55)"/><polygon points="417.89,146.83 408.30,145.71 417.89,148.60" fill="rgb(54,23,7)"/><polygon points="572.00,146.93 572.00,150.88 572.00,162.03" fill="rgb(117,56,24)"/><polygon points="572.00,15.93 572.00,19.88 572.00,31.03" fill="rgb(117,56,24)"/><polygon points="532.00,150.88 572.00,150.88 572.00,145.30" fill="rgb(53,22,7)"/><polygon points="532.00,36.60 572.00,31.03 532.00,31.03" fill="rgb(179,110,59)"/><polygon points="532.00,14.30 532.00,31.03 532.00,19.88" fill="rgb(53,22,7)"/><polygon points="532.00,145.30 532.00,162.03 532.00,150.88" fill="rgb(53,22,7)"/><polygon points="492.00,146.83 417.89,146.83 417.89,148.60" fill="rgb(53,22,7)"/><polygon points="376.87,141.10 343.91,89.68 375.35,142.01" fill="rgb(116,56,24)"/><polygon points="307.05,67.06 258.00,68.82 307.05,68.82" fill="rgb(183,113,62)"/><polygon points="226.79,65.26 215.50,64.62 241.34,69.17" fill="rgb(160,93,48)"/><polygon points="492.00,38.15 532.00,34.43 492.00,34.43" fill="rgb(173,105,56)"/><polygon points="6.00,50.36 23.00,51.29 23.00,50.36" fill="rgb(173,105,56)"/><polygon points="23.00,51.61 23.00,52.66 64.00,52.66" fill="rgb(173,105,56)"/><polygon points="258.00,36.60 258.00,33.34 258.00,31.03" fill="rgb(53,22,7)"/><polygon points="258.00,36.60 258.00,19.88 258.00,17.57" fill="rgb(53,22,7)"/><polygon points="258.00,70.31 258.00,51.35 258.00,53.65" fill="rgb(117,56,24)"/><polygon points="258.00,70.31 258.00,64.76 258.00,67.06" fill="rgb(117,56,24)"/><polygon points="492.00,143.75 492.00,148.60 492.00,150.90" fill="rgb(117,56,24)"/><polygon points="492.00,143.75 492.00,162.01 492.00,164.31" fill="rgb(117,56,24)"/><polygon points="226.79,65.26 213.01,63.21 215.50,64.62" fill="rgb(158,91,47)"/><polygon points="532.00,146.32 492.00,145.61 492.00,146.54" fill="rgb(53,22,7)"/><polygon points="173.00,26.15 173.00,52.84 173.00,50.56" fill="rgb(53,22,7)"/><polygon points="173.00,26.15 173.00,30.34 173.00,28.07" fill="rgb(53,22,7)"/><polygon points="241.34,69.17 238.80,69.89 258.00,71.90" fill="rgb(158,91,46)"/><polygon points="64.00,55.19 101.00,54.02 101.00,52.86" fill="rgb(173,105,56)"/><polygon points="64.00,55.19 101.00,52.86 64.00,54.02" fill="rgb(173,105,56)"/><polygon points="381.31,151.14 386.41,150.83 376.87,141.10" fill="rgb(115,55,24)"/><polygon points="342.96,90.25 343.91,89.68 335.33,76.49" fill="rgb(103,49,21)"/><polygon points="572.00,34.98 582.00,30.22 572.00,30.22" fill="rgb(179,110,59)"/><polygon points="572.00,15.93 572.00,30.22 572.00,20.69" fill="rgb(53,22,7)"/><polygon points="582.00,34.98 582.00,30.22 582.00,20.69" fill="rgb(53,22,7)"/><polygon points="572.00,151.69 582.00,151.69 582.00,146.93" fill="rgb(53,22,7)"/><polygon points="572.00,146.93 572.00,161.22 572.00,151.69" fill="rgb(53,22,7)"/><polygon points="582.00,165.98 582.00,161.22 582.00,151.69" fill="rgb(53,22,7)"/><polygon points="173.00,52.84 101.00,52.66 173.00,54.27" fill="rgb(173,104,55)"/><polygon points="6.00,50.36 6.00,51.29 23.00,51.29" fill="rgb(173,105,56)"/><polygon points="385.49,155.98 397.03,160.66 386.41,150.83" fill="rgb(134,69,32)"/><polygon points="492.00,36.60 492.00,31.03 258.00,35.11" fill="rgb(179,110,60)"/><polygon points="408.30,145.71 403.66,141.60 397.79,142.85" fill="rgb(53,22,7)"/><polygon points="417.89,145.72 408.30,145.71 417.89,146.83" fill="rgb(53,22,7)"/><polygon points="323.90,72.17 307.05,68.82 307.05,69.93" fill="rgb(162,95,49)"/><polygon points="335.33,76.49 323.90,72.17 327.49,75.69" fill="rgb(141,75,36)"/><polygon points="492.00,145.72 417.89,146.83 492.00,146.83" fill="rgb(53,22,7)"/><polygon points="374.40,142.58 375.35,142.01 343.91,89.68" fill="rgb(93,43,18)"/><polygon points="307.05,68.82 258.00,68.82 258.00,69.93" fill="rgb(173,105,56)"/><polygon points="192.54,59.70 213.01,63.21 197.82,59.73" fill="rgb(154,87,44)"/><polygon points="532.00,145.04 492.00,145.61 532.00,146.32" fill="rgb(53,22,7)"/><polygon points="238.80,69.89 241.34,69.17 215.50,64.62" fill="rgb(156,89,45)"/><polygon points="258.00,36.60 258.00,35.11 258.00,33.34" fill="rgb(53,22,7)"/><polygon points="258.00,36.60 258.00,17.57 258.00,15.80" fill="rgb(53,22,7)"/><polygon points="258.00,70.31 258.00,49.58 258.00,51.35" fill="rgb(117,56,24)"/><polygon points="258.00,70.31 258.00,67.06 258.00,68.82" fill="rgb(117,56,24)"/><polygon points="492.00,143.75 492.00,146.83 492.00,148.60" fill="rgb(117,56,24)"/><polygon points="492.00,143.75 492.00,164.31 492.00,166.07" fill="rgb(117,56,24)"/><polygon points="23.00,53.71 64.00,52.66 23.00,52.66" fill="rgb(173,105,56)"/><polygon points="492.00,145.72 417.89,145.72 417.89,146.83" fill="rgb(53,22,7)"/><polygon points="342.96,90.25 374.40,142.58 343.91,89.68" fill="rgb(93,43,18)"/><polygon points="307.05,68.82 258.00,69.93 307.05,69.93" fill="rgb(173,105,56)"/><polygon points="173.00,54.27 101.00,52.66 101.00,53.71" fill="rgb(173,104,55)"/><polygon points="64.00,24.55 64.00,56.35 64.00,51.70" fill="rgb(53,22,7)"/><polygon points="215.50,64.62 213.01,63.21 192.54,59.70" fill="rgb(155,88,45)"/><polygon points="6.00,52.22 23.00,51.29 6.00,51.29" fill="rgb(173,105,56)"/><polygon points="335.33,76.49 335.06,83.07 342.96,90.25" fill="rgb(116,56,24)"/><polygon points="173.00,26.15 173.00,54.27 173.00,52.84" fill="rgb(53,22,7)"/><polygon points="173.00,26.15 173.00,28.07 173.00,26.64" fill="rgb(53,22,7)"/><polygon points="101.00,54.02 64.00,55.19 101.00,55.38" fill="rgb(173,105,56)"/><polygon points="492.00,145.04 492.00,145.61 532.00,145.04" fill="rgb(53,22,7)"/><polygon points="101.00,26.15 101.00,54.75 101.00,50.56" fill="rgb(53,22,7)"/><polygon points="23.00,26.15 23.00,54.75 23.00,50.56" fill="rgb(53,22,7)"/><polygon points="258.00,74.46 258.00,71.90 238.80,69.89" fill="rgb(164,96,50)"/><polygon points="572.00,146.93 572.00,162.03 572.00,167.60" fill="rgb(117,56,24)"/><polygon points="572.00,146.93 572.00,145.30 572.00,150.88" fill="rgb(117,56,24)"/><polygon points="572.00,15.93 572.00,31.03 572.00,36.60" fill="rgb(117,56,24)"/><polygon points="532.00,36.60 572.00,36.60 572.00,31.03" fill="rgb(179,110,59)"/><polygon points="572.00,15.93 572.00,14.30 572.00,19.88" fill="rgb(117,56,24)"/><polygon points="532.00,14.30 532.00,36.60 532.00,31.03" fill="rgb(53,22,7)"/><polygon points="532.00,150.88 572.00,145.30 532.00,145.30" fill="rgb(53,22,7)"/><polygon points="532.00,145.30 532.00,167.60 532.00,162.03" fill="rgb(53,22,7)"/><polygon points="64.00,52.66 23.00,53.71 64.00,54.00" fill="rgb(173,105,56)"/><polygon points="417.89,145.72 410.78,143.47 408.30,145.71" fill="rgb(53,22,7)"/><polygon points="492.00,12.75 492.00,38.15 492.00,34.43" fill="rgb(53,22,7)"/><polygon points="492.00,143.75 492.00,169.15 492.00,165.43" fill="rgb(53,22,7)"/><polygon points="532.00,145.30 532.00,165.43 532.00,169.15" fill="rgb(117,56,24)"/><polygon points="6.00,40.45 6.00,49.43 6.00,53.15" fill="rgb(117,56,24)"/><polygon points="23.00,26.15 23.00,49.43 23.00,53.15" fill="rgb(117,56,24)"/><polygon points="532.00,145.30 532.00,143.75 532.00,147.47" fill="rgb(117,56,24)"/><polygon points="6.00,40.45 6.00,27.75 6.00,31.47" fill="rgb(117,56,24)"/><polygon points="23.00,26.15 23.00,27.75 23.00,31.47" fill="rgb(53,22,7)"/><polygon points="532.00,14.30 532.00,34.43 532.00,38.15" fill="rgb(117,56,24)"/><polygon points="492.00,38.15 532.00,38.15 532.00,34.43" fill="rgb(173,105,56)"/><polygon points="532.00,14.30 532.00,12.75 532.00,16.47" fill="rgb(117,56,24)"/><polygon points="385.49,155.98 386.41,150.83 381.31,151.14" fill="rgb(113,54,23)"/><polygon points="307.05,69.93 317.68,73.11 323.90,72.17" fill="rgb(161,93,48)"/><polygon points="23.00,51.29 6.00,52.22 23.00,52.40" fill="rgb(173,105,56)"/><polygon points="258.00,36.60 258.00,36.22 258.00,35.11" fill="rgb(53,22,7)"/><polygon points="258.00,35.11 258.00,36.22 492.00,36.60" fill="rgb(173,105,56)"/><polygon points="258.00,36.60 258.00,15.80 258.00,14.68" fill="rgb(53,22,7)"/><polygon points="374.40,142.58 381.31,151.14 375.35,142.01" fill="rgb(116,56,24)"/><polygon points="258.00,70.31 258.00,48.47 258.00,49.58" fill="rgb(117,56,24)"/><polygon points="258.00,70.31 258.00,68.82 258.00,69.93" fill="rgb(117,56,24)"/><polygon points="492.00,143.75 492.00,145.72 492.00,146.83" fill="rgb(53,22,7)"/><polygon points="492.00,143.75 492.00,166.07 492.00,167.18" fill="rgb(117,56,24)"/><polygon points="335.33,76.49 327.49,75.69 335.06,83.07" fill="rgb(129,64,29)"/><polygon points="572.00,34.98 582.00,34.98 582.00,30.22" fill="rgb(179,110,59)"/><polygon points="572.00,15.93 572.00,34.98 572.00,30.22" fill="rgb(53,22,7)"/><polygon points="582.00,34.98 582.00,20.69 582.00,15.93" fill="rgb(53,22,7)"/><polygon points="572.00,151.69 582.00,146.93 572.00,146.93" fill="rgb(53,22,7)"/><polygon points="572.00,146.93 572.00,165.98 572.00,161.22" fill="rgb(53,22,7)"/><polygon points="582.00,165.98 582.00,151.69 582.00,146.93" fill="rgb(53,22,7)"/><polygon points="215.50,64.62 223.11,66.65 238.80,69.89" fill="rgb(142,76,37)"/><polygon points="173.00,54.27 101.00,53.71 173.00,54.75" fill="rgb(156,89,45)"/><polygon points="492.00,145.04 532.00,145.04 532.00,143.75" fill="rgb(53,22,7)"/><polygon points="410.78,143.47 403.66,141.60 408.30,145.71" fill="rgb(53,22,7)"/><polygon points="258.00,56.96 258.00,69.34 258.00,74.46" fill="rgb(53,22,7)"/><polygon points="258.00,56.96 258.00,6.00 258.00,11.13" fill="rgb(53,22,7)"/><polygon points="492.00,145.34 417.89,145.72 492.00,145.72" fill="rgb(53,22,7)"/><polygon points="342.96,90.25 374.08,142.78 374.40,142.58" fill="rgb(67,30,11)"/><polygon points="307.05,69.93 258.00,69.93 258.00,70.31" fill="rgb(157,90,46)"/><polygon points="323.90,72.17 317.68,73.11 327.49,75.69" fill="rgb(160,93,48)"/><polygon points="64.00,55.19 64.00,56.35 101.00,55.38" fill="rgb(173,105,56)"/><polygon points="173.00,55.45 192.54,59.70 173.00,54.19" fill="rgb(160,93,48)"/><polygon points="215.50,64.62 192.54,59.70 207.71,63.19" fill="rgb(139,73,35)"/><polygon points="23.00,53.71 23.00,54.75 64.00,54.00" fill="rgb(173,105,56)"/><polygon points="6.00,52.22 6.00,53.15 23.00,52.40" fill="rgb(173,105,56)"/><polygon points="173.00,26.15 173.00,54.75 173.00,54.27" fill="rgb(53,22,7)"/><polygon points="215.50,64.62 207.71,63.19 223.11,66.65" fill="rgb(140,75,36)"/><polygon points="492.00,145.04 532.00,143.75 492.00,143.75" fill="rgb(53,22,7)"/><polygon points="258.00,36.22 258.00,36.60 492.00,36.60" fill="rgb(157,90,46)"/><polygon points="258.00,36.60 258.00,14.68 258.00,14.30" fill="rgb(53,22,7)"/><polygon points="492.00,145.34 417.89,145.34 417.89,145.72" fill="rgb(53,22,7)"/><polygon points="342.63,90.44 374.08,142.78 342.96,90.25" fill="rgb(67,30,11)"/><polygon points="307.05,69.93 258.00,70.31 307.05,70.31" fill="rgb(157,90,46)"/><polygon points="417.89,145.34 410.78,143.47 417.89,145.72" fill="rgb(53,22,7)"/><polygon points="374.40,142.58 374.08,142.78 381.31,151.14" fill="rgb(85,40,16)"/><polygon points="342.96,90.25 335.06,83.07 342.63,90.44" fill="rgb(94,44,18)"/><polygon points="307.05,69.93 307.05,70.31 317.68,73.11" fill="rgb(141,75,36)"/><polygon points="258.00,70.31 258.00,48.09 258.00,48.47" fill="rgb(117,56,24)"/><polygon points="492.00,143.75 492.00,145.34 492.00,145.72" fill="rgb(53,22,7)"/><polygon points="492.00,143.75 492.00,167.18 492.00,167.56" fill="rgb(117,56,24)"/><polygon points="101.00,54.75 173.00,54.75 101.00,53.71" fill="rgb(173,105,56)"/><polygon points="101.00,55.38 64.00,56.35 101.00,56.35" fill="rgb(173,105,56)"/><polygon points="23.00,52.40 6.00,53.15 23.00,53.15" fill="rgb(173,105,56)"/><polygon points="64.00,54.00 23.00,54.75 64.00,54.75" fill="rgb(173,105,56)"/><polygon points="258.00,74.46 238.80,69.89 230.75,68.14" fill="rgb(134,69,32)"/><polygon points="6.00,27.75 6.00,40.45 6.00,53.15" fill="rgb(57,25,8)"/><polygon points="101.00,54.75 101.00,24.55 101.00,26.15" fill="rgb(154,87,44)"/><polygon points="64.00,56.35 64.00,26.15 64.00,24.55" fill="rgb(154,87,44)"/><polygon points="23.00,26.15 23.00,53.15 23.00,54.75" fill="rgb(154,87,44)"/><polygon points="572.00,15.93 572.00,36.60 572.00,34.98" fill="rgb(154,87,44)"/><polygon points="532.00,14.30 532.00,38.15 532.00,36.60" fill="rgb(154,87,44)"/><polygon points="492.00,38.15 492.00,14.30 492.00,12.75" fill="rgb(154,87,44)"/><polygon points="582.00,34.98 582.00,15.93 582.00,25.45" fill="rgb(154,87,44)"/><polygon points="572.00,146.93 572.00,167.60 572.00,165.98" fill="rgb(154,87,44)"/><polygon points="532.00,145.30 532.00,169.15 532.00,167.60" fill="rgb(154,87,44)"/><polygon points="492.00,143.75 492.00,167.56 492.00,169.15" fill="rgb(57,25,8)"/><polygon points="492.00,169.15 492.00,145.34 492.00,143.75" fill="rgb(57,25,8)"/><polygon points="582.00,165.98 582.00,146.93 582.00,156.45" fill="rgb(154,87,44)"/><polygon points="173.00,50.05 173.00,50.01 173.00,55.45" fill="rgb(53,22,7)"/><polygon points="173.00,50.05 173.00,25.46 173.00,30.57" fill="rgb(53,22,7)"/><polygon points="188.90,58.87 207.71,63.19 192.54,59.70" fill="rgb(133,68,31)"/><polygon points="173.00,25.46 192.56,21.14 200.28,19.32" fill="rgb(157,90,46)"/><polygon points="238.29,10.89 242.26,9.63 225.97,13.35" fill="rgb(162,95,49)"/><polygon points="64.00,26.15 23.00,26.15 64.00,26.90" fill="rgb(173,105,56)"/><polygon points="23.00,27.75 6.00,27.75 6.00,28.51" fill="rgb(173,105,56)"/><polygon points="238.29,10.89 258.00,6.00 242.26,9.63" fill="rgb(162,94,49)"/><polygon points="532.00,168.22 492.00,169.15 532.00,169.15" fill="rgb(53,22,7)"/><polygon points="101.00,24.55 64.00,24.55 101.00,25.53" fill="rgb(173,105,56)"/><polygon points="101.00,27.20 173.00,26.15 101.00,26.15" fill="rgb(173,105,56)"/><polygon points="492.00,167.18 417.89,167.56 492.00,167.56" fill="rgb(53,22,7)"/><polygon points="361.36,79.20 393.13,131.33 361.68,79.00" fill="rgb(67,30,11)"/><polygon points="307.05,48.09 258.00,48.09 258.00,48.47" fill="rgb(157,90,46)"/><polygon points="407.00,165.67 417.89,167.56 417.89,167.18" fill="rgb(53,22,7)"/><polygon points="392.80,131.53 397.06,135.17 393.13,131.33" fill="rgb(94,44,18)"/><polygon points="361.36,79.20 361.68,79.00 354.45,70.64" fill="rgb(85,40,16)"/><polygon points="317.94,49.98 307.05,48.09 307.05,48.47" fill="rgb(147,81,40)"/><polygon points="258.00,70.31 258.00,48.47 258.00,48.09" fill="rgb(117,56,24)"/><polygon points="492.00,169.15 492.00,167.56 492.00,167.18" fill="rgb(53,22,7)"/><polygon points="492.00,169.15 492.00,145.72 492.00,145.34" fill="rgb(117,56,24)"/><polygon points="258.00,36.60 258.00,14.30 258.00,14.68" fill="rgb(53,22,7)"/><polygon points="492.00,14.30 258.00,14.30 258.00,14.68" fill="rgb(157,90,46)"/><polygon points="225.97,13.35 209.74,17.05 215.50,16.10" fill="rgb(164,96,50)"/><polygon points="173.00,26.15 173.00,54.27 173.00,54.75" fill="rgb(53,22,7)"/><polygon points="23.00,28.68 23.00,27.75 6.00,28.51" fill="rgb(173,105,56)"/><polygon points="64.00,26.90 23.00,26.15 23.00,27.20" fill="rgb(173,105,56)"/><polygon points="173.00,54.09 173.00,55.45 188.90,58.87" fill="rgb(53,22,7)"/><polygon points="101.00,25.53 64.00,24.55 64.00,25.72" fill="rgb(173,105,56)"/><polygon points="492.00,169.15 532.00,168.22 492.00,167.87" fill="rgb(53,22,7)"/><polygon points="173.00,26.67 192.56,21.14 173.00,25.46" fill="rgb(185,115,63)"/><polygon points="492.00,167.18 417.89,167.18 417.89,167.56" fill="rgb(53,22,7)"/><polygon points="392.80,131.53 393.13,131.33 361.36,79.20" fill="rgb(67,30,11)"/><polygon points="307.05,48.09 258.00,48.47 307.05,48.47" fill="rgb(157,90,46)"/><polygon points="192.56,21.14 215.50,16.10 209.74,17.05" fill="rgb(165,97,51)"/><polygon points="225.97,13.35 215.50,16.10 238.29,10.89" fill="rgb(163,95,49)"/><polygon points="343.56,61.78 347.45,62.53 337.97,57.17" fill="rgb(127,63,28)"/><polygon points="173.00,26.15 101.00,27.20 173.00,26.64" fill="rgb(157,90,46)"/><polygon points="397.03,160.66 385.49,155.98 393.09,160.28" fill="rgb(53,22,7)"/><polygon points="400.69,164.58 397.03,160.66 393.09,160.28" fill="rgb(53,22,7)"/><polygon points="347.45,62.53 350.93,70.04 354.45,70.64" fill="rgb(100,47,20)"/><polygon points="572.00,20.69 582.00,15.93 572.00,15.93" fill="rgb(179,110,59)"/><polygon points="572.00,34.98 572.00,15.93 572.00,20.69" fill="rgb(53,22,7)"/><polygon points="582.00,15.93 582.00,30.22 582.00,34.98" fill="rgb(53,22,7)"/><polygon points="572.00,165.98 582.00,165.98 582.00,161.22" fill="rgb(53,22,7)"/><polygon points="572.00,165.98 572.00,146.93 572.00,151.69" fill="rgb(53,22,7)"/><polygon points="582.00,146.93 582.00,161.22 582.00,165.98" fill="rgb(53,22,7)"/><polygon points="417.89,166.07 407.00,165.67 417.89,167.18" fill="rgb(53,22,7)"/><polygon points="397.06,135.17 392.80,131.53 391.85,132.10" fill="rgb(103,49,21)"/><polygon points="354.45,70.64 360.41,79.77 361.36,79.20" fill="rgb(116,56,24)"/><polygon points="307.05,49.58 317.94,49.98 307.05,48.47" fill="rgb(159,92,47)"/><polygon points="258.00,70.31 258.00,69.93 258.00,68.82" fill="rgb(117,56,24)"/><polygon points="258.00,70.31 258.00,49.58 258.00,48.47" fill="rgb(117,56,24)"/><polygon points="492.00,169.15 492.00,167.18 492.00,166.07" fill="rgb(53,22,7)"/><polygon points="492.00,169.15 492.00,146.83 492.00,145.72" fill="rgb(117,56,24)"/><polygon points="258.00,36.60 258.00,35.11 258.00,36.22" fill="rgb(53,22,7)"/><polygon points="258.00,36.60 258.00,14.68 258.00,15.80" fill="rgb(53,22,7)"/><polygon points="492.00,14.30 258.00,14.68 258.00,15.80" fill="rgb(173,105,56)"/><polygon points="6.00,29.61 23.00,28.68 6.00,28.51" fill="rgb(173,105,56)"/><polygon points="334.82,58.98 337.97,57.17 328.50,51.81" fill="rgb(137,72,34)"/><polygon points="403.66,141.60 397.06,135.17 397.79,142.85" fill="rgb(128,63,28)"/><polygon points="258.00,6.00 238.29,10.89 258.00,8.56" fill="rgb(180,111,60)"/><polygon points="6.00,27.75 6.00,53.15 6.00,49.43" fill="rgb(117,56,24)"/><polygon points="492.00,16.47 532.00,12.75 492.00,12.75" fill="rgb(173,105,56)"/><polygon points="492.00,38.15 492.00,12.75 492.00,16.47" fill="rgb(53,22,7)"/><polygon points="492.00,169.15 492.00,143.75 492.00,147.47" fill="rgb(53,22,7)"/><polygon points="188.90,58.87 188.70,58.30 173.00,54.09" fill="rgb(53,22,7)"/><polygon points="407.00,165.67 406.35,161.31 400.69,164.58" fill="rgb(53,22,7)"/><polygon points="324.81,55.76 328.50,51.81 317.94,49.98" fill="rgb(167,99,52)"/><polygon points="64.00,26.90 23.00,27.20 64.00,28.25" fill="rgb(173,105,56)"/><polygon points="532.00,19.88 572.00,14.30 532.00,14.30" fill="rgb(179,110,59)"/><polygon points="532.00,36.60 532.00,14.30 532.00,19.88" fill="rgb(53,22,7)"/><polygon points="532.00,167.60 532.00,145.30 532.00,150.88" fill="rgb(53,22,7)"/><polygon points="492.00,38.15 492.00,36.60 492.00,31.03" fill="rgb(53,22,7)"/><polygon points="492.00,38.15 492.00,19.88 492.00,14.30" fill="rgb(117,56,24)"/><polygon points="532.00,167.60 572.00,167.60 572.00,162.03" fill="rgb(53,22,7)"/><polygon points="173.00,26.67 197.61,20.56 192.56,21.14" fill="rgb(179,110,59)"/><polygon points="532.00,168.22 532.00,167.29 492.00,167.87" fill="rgb(53,22,7)"/><polygon points="197.61,20.56 215.50,16.10 192.56,21.14" fill="rgb(174,105,56)"/><polygon points="64.00,56.35 64.00,54.75 64.00,50.56" fill="rgb(53,22,7)"/><polygon points="64.00,56.35 64.00,30.34 64.00,26.15" fill="rgb(117,56,24)"/><polygon points="101.00,54.75 101.00,26.15 101.00,30.34" fill="rgb(53,22,7)"/><polygon points="23.00,54.75 23.00,26.15 23.00,30.34" fill="rgb(53,22,7)"/><polygon points="101.00,25.53 64.00,25.72 101.00,26.88" fill="rgb(173,105,56)"/><polygon points="173.00,26.15 173.00,52.84 173.00,54.27" fill="rgb(53,22,7)"/><polygon points="173.00,26.15 173.00,26.64 173.00,28.07" fill="rgb(53,22,7)"/><polygon points="6.00,29.61 23.00,29.61 23.00,28.68" fill="rgb(173,105,56)"/><polygon points="101.00,54.75 101.00,56.35 101.00,51.70" fill="rgb(117,56,24)"/><polygon points="101.00,54.75 101.00,29.21 101.00,24.55" fill="rgb(117,56,24)"/><polygon points="64.00,56.35 64.00,24.55 64.00,29.21" fill="rgb(53,22,7)"/><polygon points="101.00,27.20 101.00,28.25 173.00,26.64" fill="rgb(174,105,56)"/><polygon points="492.00,166.07 417.89,167.18 492.00,167.18" fill="rgb(53,22,7)"/><polygon points="360.41,79.77 392.80,131.53 361.36,79.20" fill="rgb(93,43,18)"/><polygon points="307.05,48.47 258.00,48.47 258.00,49.58" fill="rgb(173,105,56)"/><polygon points="258.00,56.96 258.00,56.96 258.00,69.34" fill="rgb(53,22,7)"/><polygon points="258.00,56.96 258.00,11.13 258.00,23.50" fill="rgb(53,22,7)"/><polygon points="23.00,28.25 64.00,28.25 23.00,27.20" fill="rgb(173,105,56)"/><polygon points="188.70,58.30 173.00,52.73 173.00,54.09" fill="rgb(53,22,7)"/><polygon points="354.45,70.64 350.93,70.04 360.41,79.77" fill="rgb(101,48,20)"/><polygon points="417.89,166.07 417.89,164.31 407.00,165.67" fill="rgb(65,29,11)"/><polygon points="376.87,141.10 375.35,142.01 381.31,151.14" fill="rgb(83,38,15)"/><polygon points="307.05,51.35 317.94,49.98 307.05,49.58" fill="rgb(160,93,48)"/><polygon points="258.00,70.31 258.00,68.82 258.00,67.06" fill="rgb(117,56,24)"/><polygon points="258.00,70.31 258.00,51.35 258.00,49.58" fill="rgb(117,56,24)"/><polygon points="492.00,169.15 492.00,166.07 492.00,164.31" fill="rgb(117,56,24)"/><polygon points="492.00,169.15 492.00,148.60 492.00,146.83" fill="rgb(117,56,24)"/><polygon points="258.00,36.60 258.00,33.34 258.00,35.11" fill="rgb(53,22,7)"/><polygon points="258.00,36.60 258.00,15.80 258.00,17.57" fill="rgb(53,22,7)"/><polygon points="173.00,26.67 188.62,23.17 197.61,20.56" fill="rgb(171,103,55)"/><polygon points="343.56,61.78 350.93,70.04 347.45,62.53" fill="rgb(114,55,23)"/><polygon points="532.00,167.29 492.00,166.58 492.00,167.87" fill="rgb(53,22,7)"/><polygon points="492.00,166.07 417.89,166.07 417.89,167.18" fill="rgb(53,22,7)"/><polygon points="360.41,79.77 391.85,132.10 392.80,131.53" fill="rgb(93,43,18)"/><polygon points="307.05,48.47 258.00,49.58 307.05,49.58" fill="rgb(173,105,56)"/><polygon points="101.00,26.88 64.00,25.72 64.00,26.88" fill="rgb(173,105,56)"/><polygon points="397.06,135.17 391.85,132.10 397.79,142.85" fill="rgb(103,49,20)"/><polygon points="173.00,26.67 173.00,27.87 188.62,23.17" fill="rgb(186,116,63)"/><polygon points="337.97,57.17 334.82,58.98 343.56,61.78" fill="rgb(145,79,38)"/><polygon points="215.50,16.10 197.61,20.56 206.96,19.43" fill="rgb(181,112,60)"/><polygon points="232.48,14.16 238.29,10.89 215.50,16.10" fill="rgb(181,112,61)"/><polygon points="173.00,50.05 173.00,30.57 173.00,40.24" fill="rgb(53,22,7)"/><polygon points="173.00,50.05 173.00,40.24 173.00,50.01" fill="rgb(53,22,7)"/><polygon points="258.00,15.80 492.00,19.88 492.00,14.30" fill="rgb(179,110,59)"/><polygon points="6.00,30.54 23.00,29.61 6.00,29.61" fill="rgb(173,105,56)"/><polygon points="406.35,161.31 397.03,160.66 400.69,164.58" fill="rgb(53,22,7)"/><polygon points="173.00,26.64 101.00,28.25 173.00,28.07" fill="rgb(174,105,56)"/><polygon points="572.00,20.69 582.00,20.69 582.00,15.93" fill="rgb(179,110,59)"/><polygon points="572.00,34.98 572.00,20.69 572.00,30.22" fill="rgb(53,22,7)"/><polygon points="582.00,15.93 582.00,20.69 582.00,30.22" fill="rgb(53,22,7)"/><polygon points="572.00,165.98 582.00,161.22 572.00,161.22" fill="rgb(53,22,7)"/><polygon points="572.00,165.98 572.00,151.69 572.00,161.22" fill="rgb(53,22,7)"/><polygon points="582.00,146.93 582.00,151.69 582.00,161.22" fill="rgb(53,22,7)"/><polygon points="173.00,52.73 188.70,58.30 192.83,58.26" fill="rgb(53,22,7)"/><polygon points="258.00,56.96 258.00,23.50 258.00,56.96" fill="rgb(53,22,7)"/><polygon points="406.35,161.31 407.00,165.67 417.89,164.31" fill="rgb(53,22,7)"/><polygon points="307.05,51.35 324.81,55.76 317.94,49.98" fill="rgb(164,96,50)"/><polygon points="173.00,26.15 173.00,50.56 173.00,52.84" fill="rgb(53,22,7)"/><polygon points="173.00,26.15 173.00,28.07 173.00,30.34" fill="rgb(53,22,7)"/><polygon points="197.61,20.56 188.62,23.17 206.96,19.43" fill="rgb(182,112,61)"/><polygon points="258.00,8.56 238.29,10.89 232.48,14.16" fill="rgb(182,113,61)"/><polygon points="492.00,166.58 532.00,167.29 532.00,166.36" fill="rgb(53,22,7)"/><polygon points="258.00,70.31 258.00,67.06 258.00,64.76" fill="rgb(117,56,24)"/><polygon points="258.00,70.31 258.00,53.65 258.00,51.35" fill="rgb(117,56,24)"/><polygon points="492.00,169.15 492.00,164.31 492.00,162.01" fill="rgb(117,56,24)"/><polygon points="492.00,169.15 492.00,150.90 492.00,148.60" fill="rgb(117,56,24)"/><polygon points="258.00,36.60 258.00,31.03 258.00,33.34" fill="rgb(53,22,7)"/><polygon points="258.00,36.60 258.00,17.57 258.00,19.88" fill="rgb(53,22,7)"/><polygon points="64.00,29.29 64.00,28.25 23.00,28.25" fill="rgb(173,105,56)"/><polygon points="334.82,58.98 328.50,51.81 324.81,55.76" fill="rgb(158,91,47)"/><polygon points="6.00,30.54 23.00,30.54 23.00,29.61" fill="rgb(173,105,56)"/><polygon points="492.00,16.47 532.00,16.47 532.00,12.75" fill="rgb(173,105,56)"/><polygon points="206.96,19.43 232.48,14.16 215.50,16.10" fill="rgb(180,111,60)"/><polygon points="492.00,164.31 417.89,166.07 492.00,166.07" fill="rgb(53,22,7)"/><polygon points="360.41,79.77 358.89,80.68 391.85,132.10" fill="rgb(116,56,24)"/><polygon points="307.05,49.58 258.00,49.58 258.00,51.35" fill="rgb(183,113,62)"/><polygon points="532.00,36.60 532.00,19.88 532.00,31.03" fill="rgb(53,22,7)"/><polygon points="532.00,167.60 532.00,150.88 532.00,162.03" fill="rgb(53,22,7)"/><polygon points="532.00,19.88 572.00,19.88 572.00,14.30" fill="rgb(179,110,59)"/><polygon points="532.00,167.60 572.00,162.03 532.00,162.03" fill="rgb(53,22,7)"/><polygon points="492.00,38.15 492.00,31.03 492.00,19.88" fill="rgb(117,56,24)"/><polygon points="101.00,26.88 64.00,26.88 101.00,28.05" fill="rgb(173,105,56)"/><polygon points="173.00,28.07 101.00,28.25 101.00,29.29" fill="rgb(174,105,56)"/><polygon points="193.74,23.46 188.62,23.17 173.00,27.87" fill="rgb(190,120,66)"/><polygon points="64.00,29.29 23.00,28.25 23.00,29.29" fill="rgb(173,105,56)"/><polygon points="258.00,70.31 258.00,64.76 258.00,62.08" fill="rgb(117,56,24)"/><polygon points="258.00,70.31 258.00,56.33 258.00,53.65" fill="rgb(117,56,24)"/><polygon points="492.00,169.15 492.00,162.01 492.00,159.33" fill="rgb(117,56,24)"/><polygon points="492.00,169.15 492.00,153.58 492.00,150.90" fill="rgb(117,56,24)"/><polygon points="258.00,36.60 258.00,28.34 258.00,31.03" fill="rgb(53,22,7)"/><polygon points="258.00,36.60 258.00,19.88 258.00,22.57" fill="rgb(53,22,7)"/><polygon points="173.00,28.55 193.74,23.46 173.00,27.87" fill="rgb(185,115,63)"/><polygon points="360.41,79.77 350.93,70.04 358.89,80.68" fill="rgb(125,61,27)"/><polygon points="206.96,19.43 188.62,23.17 193.74,23.46" fill="rgb(188,118,65)"/><polygon points="492.00,164.31 417.89,164.31 417.89,166.07" fill="rgb(53,22,7)"/><polygon points="390.34,133.01 391.85,132.10 358.89,80.68" fill="rgb(116,56,24)"/><polygon points="307.05,49.58 258.00,51.35 307.05,51.35" fill="rgb(183,113,62)"/><polygon points="192.32,56.37 173.00,52.73 192.83,58.26" fill="rgb(53,22,7)"/><polygon points="6.00,27.75 6.00,49.43 6.00,40.45" fill="rgb(117,56,24)"/><polygon points="6.00,27.75 6.00,40.45 6.00,31.47" fill="rgb(117,56,24)"/><polygon points="492.00,38.15 492.00,16.47 492.00,25.45" fill="rgb(53,22,7)"/><polygon points="492.00,38.15 492.00,25.45 492.00,34.43" fill="rgb(53,22,7)"/><polygon points="492.00,169.15 492.00,147.47 492.00,156.45" fill="rgb(53,22,7)"/><polygon points="492.00,169.15 492.00,156.45 492.00,165.43" fill="rgb(53,22,7)"/><polygon points="258.00,70.31 258.00,62.08 258.00,59.20" fill="rgb(117,56,24)"/><polygon points="258.00,70.31 258.00,59.20 258.00,56.33" fill="rgb(117,56,24)"/><polygon points="492.00,169.15 492.00,159.33 492.00,156.45" fill="rgb(117,56,24)"/><polygon points="492.00,169.15 492.00,156.45 492.00,153.58" fill="rgb(117,56,24)"/><polygon points="258.00,36.60 258.00,22.57 258.00,25.45" fill="rgb(53,22,7)"/><polygon points="258.00,36.60 258.00,25.45 258.00,28.34" fill="rgb(53,22,7)"/><polygon points="492.00,165.43 492.00,166.58 532.00,166.36" fill="rgb(53,22,7)"/><polygon points="390.34,133.01 397.79,142.85 391.85,132.10" fill="rgb(129,64,29)"/><polygon points="6.00,31.47 23.00,30.54 6.00,30.54" fill="rgb(173,105,56)"/><polygon points="64.00,28.05 101.00,28.05 64.00,26.88" fill="rgb(173,105,56)"/><polygon points="173.00,26.15 173.00,47.60 173.00,50.56" fill="rgb(53,22,7)"/><polygon points="173.00,26.15 173.00,30.34 173.00,33.30" fill="rgb(53,22,7)"/><polygon points="258.00,15.80 258.00,17.57 492.00,19.88" fill="rgb(183,113,61)"/><polygon points="192.32,56.37 173.00,51.37 173.00,52.73" fill="rgb(53,22,7)"/><polygon points="173.00,28.55 173.00,29.22 193.74,23.46" fill="rgb(185,115,63)"/><polygon points="340.82,66.26 350.93,70.04 343.56,61.78" fill="rgb(154,87,44)"/><polygon points="64.00,56.35 64.00,50.56 64.00,40.45" fill="rgb(117,56,24)"/><polygon points="64.00,56.35 64.00,40.45 64.00,30.34" fill="rgb(117,56,24)"/><polygon points="101.00,54.75 101.00,30.34 101.00,40.45" fill="rgb(53,22,7)"/><polygon points="101.00,54.75 101.00,40.45 101.00,50.56" fill="rgb(53,22,7)"/><polygon points="23.00,54.75 23.00,30.34 23.00,40.45" fill="rgb(53,22,7)"/><polygon points="23.00,54.75 23.00,40.45 23.00,50.56" fill="rgb(53,22,7)"/><polygon points="6.00,31.47 23.00,31.47 23.00,30.54" fill="rgb(173,105,56)"/><polygon points="492.00,165.43 532.00,166.36 532.00,165.43" fill="rgb(53,22,7)"/><polygon points="572.00,30.22 582.00,30.22 582.00,20.69" fill="rgb(154,87,44)"/><polygon points="572.00,30.22 582.00,20.69 572.00,20.69" fill="rgb(154,87,44)"/><polygon points="572.00,161.22 582.00,161.22 582.00,151.69" fill="rgb(154,87,44)"/><polygon points="572.00,161.22 582.00,151.69 572.00,151.69" fill="rgb(154,87,44)"/><polygon points="173.00,28.07 101.00,29.29 173.00,30.34" fill="rgb(183,114,62)"/><polygon points="343.56,61.78 334.82,58.98 340.82,66.26" fill="rgb(154,87,44)"/><polygon points="350.93,70.04 356.92,81.86 358.89,80.68" fill="rgb(140,75,36)"/><polygon points="64.00,30.34 64.00,29.29 23.00,29.29" fill="rgb(173,105,56)"/><polygon points="492.00,162.01 417.89,164.31 492.00,164.31" fill="rgb(81,37,15)"/><polygon points="390.34,133.01 358.89,80.68 356.92,81.86" fill="rgb(134,69,32)"/><polygon points="307.05,51.35 258.00,51.35 258.00,53.65" fill="rgb(184,115,62)"/><polygon points="401.87,148.83 408.30,145.71 397.79,142.85" fill="rgb(158,91,47)"/><polygon points="215.04,20.47 232.48,14.16 206.96,19.43" fill="rgb(190,120,66)"/><polygon points="215.04,20.47 206.96,19.43 193.74,23.46" fill="rgb(189,120,66)"/><polygon points="258.00,8.56 232.48,14.16 258.00,11.13" fill="rgb(180,111,60)"/><polygon points="173.00,26.15 173.00,44.15 173.00,47.60" fill="rgb(53,22,7)"/><polygon points="173.00,26.15 173.00,33.30 173.00,36.75" fill="rgb(53,22,7)"/><polygon points="215.50,60.08 209.91,61.74 227.09,65.20" fill="rgb(60,27,9)"/><polygon points="386.41,150.83 397.03,160.66 398.56,154.50" fill="rgb(112,54,23)"/><polygon points="398.56,154.50 397.03,160.66 406.35,161.31" fill="rgb(111,53,23)"/><polygon points="417.89,164.31 417.89,162.01 406.35,161.31" fill="rgb(85,40,16)"/><polygon points="324.81,55.76 307.05,51.35 307.05,53.65" fill="rgb(179,110,59)"/><polygon points="492.00,162.01 417.89,162.01 417.89,164.31" fill="rgb(81,37,15)"/><polygon points="390.34,133.01 356.92,81.86 388.36,134.19" fill="rgb(134,69,32)"/><polygon points="307.05,51.35 258.00,53.65 307.05,53.65" fill="rgb(184,115,62)"/><polygon points="101.00,54.75 101.00,51.70 101.00,40.45" fill="rgb(117,56,24)"/><polygon points="101.00,54.75 101.00,40.45 101.00,29.21" fill="rgb(117,56,24)"/><polygon points="64.00,56.35 64.00,29.21 64.00,40.45" fill="rgb(53,22,7)"/><polygon points="64.00,56.35 64.00,40.45 64.00,51.70" fill="rgb(53,22,7)"/><polygon points="258.00,19.88 492.00,19.88 258.00,17.57" fill="rgb(184,115,62)"/><polygon points="390.34,133.01 390.89,142.47 397.79,142.85" fill="rgb(155,88,45)"/><polygon points="408.30,145.71 401.87,148.83 408.13,152.96" fill="rgb(164,96,50)"/><polygon points="64.00,30.34 23.00,29.29 23.00,30.34" fill="rgb(173,105,56)"/><polygon points="101.00,29.29 101.00,30.34 173.00,30.34" fill="rgb(173,105,56)"/><polygon points="6.00,33.72 23.00,31.47 6.00,31.47" fill="rgb(178,109,58)"/><polygon points="492.00,163.19 492.00,165.43 532.00,165.43" fill="rgb(115,55,24)"/><polygon points="198.01,25.33 193.74,23.46 173.00,29.22" fill="rgb(190,120,66)"/><polygon points="64.00,28.05 101.00,29.21 101.00,28.05" fill="rgb(173,105,56)"/><polygon points="173.00,26.15 173.00,40.45 173.00,44.15" fill="rgb(53,22,7)"/><polygon points="173.00,26.15 173.00,36.75 173.00,40.45" fill="rgb(53,22,7)"/><polygon points="350.93,70.04 347.41,74.85 356.92,81.86" fill="rgb(150,84,42)"/><polygon points="390.89,142.47 390.34,133.01 388.36,134.19" fill="rgb(130,65,30)"/><polygon points="173.00,51.37 192.32,56.37 189.06,54.31" fill="rgb(64,28,10)"/><polygon points="492.00,163.19 532.00,165.43 532.00,163.19" fill="rgb(115,55,24)"/><polygon points="6.00,33.72 23.00,33.72 23.00,31.47" fill="rgb(178,109,58)"/><polygon points="324.81,55.76 331.45,63.92 334.82,58.98" fill="rgb(166,98,51)"/><polygon points="532.00,31.03 572.00,19.88 532.00,19.88" fill="rgb(154,87,44)"/><polygon points="532.00,162.03 572.00,150.88 532.00,150.88" fill="rgb(154,87,44)"/><polygon points="532.00,31.03 572.00,31.03 572.00,19.88" fill="rgb(154,87,44)"/><polygon points="532.00,162.03 572.00,162.03 572.00,150.88" fill="rgb(154,87,44)"/><polygon points="350.93,70.04 340.82,66.26 347.41,74.85" fill="rgb(151,85,42)"/><polygon points="417.89,162.01 417.89,159.33 406.35,161.31" fill="rgb(119,57,25)"/><polygon points="198.01,25.33 173.00,29.22 173.00,29.90" fill="rgb(183,114,62)"/><polygon points="307.05,53.65 307.05,56.33 324.81,55.76" fill="rgb(174,105,56)"/><polygon points="334.82,58.98 331.45,63.92 340.82,66.26" fill="rgb(167,99,52)"/><polygon points="388.36,134.19 356.92,81.86 354.62,83.24" fill="rgb(146,80,39)"/><polygon points="307.05,53.65 258.00,53.65 258.00,56.33" fill="rgb(178,109,58)"/><polygon points="492.00,159.33 417.89,162.01 492.00,162.01" fill="rgb(115,55,24)"/><polygon points="307.05,62.08 258.00,64.76 307.05,64.76" fill="rgb(115,55,24)"/><polygon points="390.89,142.47 401.87,148.83 397.79,142.85" fill="rgb(161,94,48)"/><polygon points="258.00,22.57 492.00,19.88 258.00,19.88" fill="rgb(178,109,58)"/><polygon points="215.04,20.47 193.74,23.46 198.01,25.33" fill="rgb(190,120,66)"/><polygon points="258.00,25.45 492.00,31.03 492.00,19.88" fill="rgb(153,87,44)"/><polygon points="6.00,35.96 23.00,33.72 6.00,33.72" fill="rgb(178,109,58)"/><polygon points="492.00,160.94 492.00,163.19 532.00,163.19" fill="rgb(115,55,24)"/><polygon points="532.00,16.47 492.00,16.47 492.00,25.45" fill="rgb(178,109,58)"/><polygon points="383.60,137.05 381.14,138.54 386.41,150.83" fill="rgb(142,76,37)"/><polygon points="398.56,154.50 406.35,161.31 408.13,152.96" fill="rgb(134,69,32)"/><polygon points="386.41,150.83 390.89,142.47 383.60,137.05" fill="rgb(143,77,37)"/><polygon points="64.00,28.05 64.00,29.21 101.00,29.21" fill="rgb(173,105,56)"/><polygon points="324.81,55.76 316.77,63.23 331.45,63.92" fill="rgb(169,101,53)"/><polygon points="338.22,75.97 331.45,63.92 325.06,67.43" fill="rgb(145,79,39)"/><polygon points="406.35,161.31 417.89,159.33 417.89,156.45" fill="rgb(148,82,40)"/><polygon points="307.05,59.20 316.77,63.23 324.81,55.76" fill="rgb(156,89,46)"/><polygon points="307.05,59.20 324.81,55.76 307.05,56.33" fill="rgb(159,92,47)"/><polygon points="492.00,159.33 417.89,159.33 417.89,162.01" fill="rgb(115,55,24)"/><polygon points="386.07,135.57 388.36,134.19 354.62,83.24" fill="rgb(146,80,39)"/><polygon points="307.05,53.65 258.00,56.33 307.05,56.33" fill="rgb(178,109,58)"/><polygon points="307.05,62.08 258.00,62.08 258.00,64.76" fill="rgb(115,55,24)"/><polygon points="338.22,75.97 347.41,74.85 340.82,66.26" fill="rgb(157,90,46)"/><polygon points="417.89,156.45 408.13,152.96 406.35,161.31" fill="rgb(141,76,37)"/><polygon points="238.68,63.78 227.09,65.20 241.67,66.95" fill="rgb(75,34,13)"/><polygon points="388.36,134.19 386.07,135.57 390.89,142.47" fill="rgb(149,83,41)"/><polygon points="331.45,63.92 338.22,75.97 340.82,66.26" fill="rgb(145,79,39)"/><polygon points="354.62,83.24 356.92,81.86 347.41,74.85" fill="rgb(150,84,42)"/><polygon points="23.00,30.34 64.00,32.87 64.00,30.34" fill="rgb(178,109,58)"/><polygon points="101.00,32.87 173.00,30.34 101.00,30.34" fill="rgb(178,109,58)"/><polygon points="338.22,75.97 349.69,86.20 347.41,74.85" fill="rgb(156,89,45)"/><polygon points="238.40,16.84 232.48,14.16 215.04,20.47" fill="rgb(190,120,66)"/><polygon points="492.00,31.03 258.00,25.45 258.00,28.34" fill="rgb(142,77,37)"/><polygon points="258.00,22.57 258.00,25.45 492.00,19.88" fill="rgb(163,96,50)"/><polygon points="6.00,35.96 23.00,35.96 23.00,33.72" fill="rgb(178,109,58)"/><polygon points="492.00,160.94 532.00,163.19 532.00,160.94" fill="rgb(115,55,24)"/><polygon points="331.45,63.92 316.77,63.23 325.06,67.43" fill="rgb(136,71,33)"/><polygon points="401.87,148.83 390.89,142.47 398.56,154.50" fill="rgb(153,86,44)"/><polygon points="401.87,148.83 398.56,154.50 408.13,152.96" fill="rgb(161,93,48)"/><polygon points="204.70,55.85 192.32,56.37 215.50,60.08" fill="rgb(87,41,16)"/><polygon points="23.00,30.34 23.00,32.87 64.00,32.87" fill="rgb(178,109,58)"/><polygon points="316.77,63.23 307.05,59.20 307.05,62.08" fill="rgb(143,77,37)"/><polygon points="417.89,156.45 492.00,153.58 417.89,153.58" fill="rgb(163,96,50)"/><polygon points="417.89,159.33 492.00,159.33 492.00,156.45" fill="rgb(142,77,37)"/><polygon points="352.16,84.72 386.07,135.57 354.62,83.24" fill="rgb(152,86,43)"/><polygon points="381.14,138.54 383.60,137.05 349.69,86.20" fill="rgb(153,87,44)"/><polygon points="258.00,59.20 307.05,56.33 258.00,56.33" fill="rgb(163,96,50)"/><polygon points="258.00,62.08 307.05,62.08 307.05,59.20" fill="rgb(142,77,37)"/><polygon points="383.60,137.05 390.89,142.47 386.07,135.57" fill="rgb(154,88,44)"/><polygon points="417.89,156.45 417.89,153.58 408.13,152.96" fill="rgb(162,95,49)"/><polygon points="352.16,84.72 347.41,74.85 349.69,86.20" fill="rgb(156,89,45)"/><polygon points="354.62,83.24 347.41,74.85 352.16,84.72" fill="rgb(153,86,44)"/><polygon points="232.48,14.16 238.40,16.84 258.00,11.13" fill="rgb(190,120,66)"/><polygon points="417.89,156.45 492.00,156.45 492.00,153.58" fill="rgb(163,96,50)"/><polygon points="417.89,159.33 492.00,156.45 417.89,156.45" fill="rgb(142,77,37)"/><polygon points="386.07,135.57 352.16,84.72 383.60,137.05" fill="rgb(152,86,43)"/><polygon points="349.69,86.20 383.60,137.05 352.16,84.72" fill="rgb(153,87,44)"/><polygon points="258.00,59.20 307.05,59.20 307.05,56.33" fill="rgb(163,96,50)"/><polygon points="258.00,62.08 307.05,59.20 258.00,59.20" fill="rgb(142,77,37)"/><polygon points="6.00,38.21 23.00,35.96 6.00,35.96" fill="rgb(178,109,58)"/><polygon points="492.00,158.70 492.00,160.94 532.00,160.94" fill="rgb(115,55,24)"/><polygon points="173.00,30.34 101.00,32.87 173.00,33.30" fill="rgb(185,115,63)"/><polygon points="198.01,25.33 173.00,29.90 200.60,28.28" fill="rgb(187,117,64)"/><polygon points="200.60,28.28 173.00,29.90 173.00,30.57" fill="rgb(180,111,60)"/><polygon points="6.00,38.21 23.00,38.21 23.00,35.96" fill="rgb(178,109,58)"/><polygon points="492.00,158.70 532.00,160.94 532.00,158.70" fill="rgb(115,55,24)"/><polygon points="532.00,16.47 492.00,25.45 532.00,25.45" fill="rgb(178,109,58)"/><polygon points="23.00,32.87 64.00,35.40 64.00,32.87" fill="rgb(178,109,58)"/><polygon points="187.52,51.20 173.00,50.01 189.06,54.31" fill="rgb(94,44,18)"/><polygon points="101.00,32.02 101.00,29.21 64.00,29.21" fill="rgb(178,109,58)"/><polygon points="258.00,69.34 238.68,63.78 241.67,66.95" fill="rgb(76,35,13)"/><polygon points="187.52,51.20 189.06,54.31 204.70,55.85" fill="rgb(94,44,18)"/><polygon points="23.00,32.87 23.00,35.40 64.00,35.40" fill="rgb(178,109,58)"/><polygon points="198.01,25.33 225.43,22.07 215.04,20.47" fill="rgb(190,120,66)"/><polygon points="101.00,32.87 101.00,35.40 173.00,33.30" fill="rgb(178,109,59)"/><polygon points="101.00,32.02 64.00,29.21 64.00,32.02" fill="rgb(178,109,58)"/><polygon points="6.00,40.45 23.00,38.21 6.00,38.21" fill="rgb(178,109,58)"/><polygon points="532.00,158.70 492.00,156.45 492.00,158.70" fill="rgb(115,55,24)"/><polygon points="227.09,58.64 204.70,55.85 215.50,60.08" fill="rgb(94,44,18)"/><polygon points="225.43,22.07 238.40,16.84 215.04,20.47" fill="rgb(190,120,66)"/><polygon points="6.00,40.45 23.00,40.45 23.00,38.21" fill="rgb(178,109,58)"/><polygon points="532.00,158.70 532.00,156.45 492.00,156.45" fill="rgb(115,55,24)"/><polygon points="227.09,58.64 215.50,60.08 238.68,63.78" fill="rgb(102,48,20)"/><polygon points="64.00,37.92 64.00,35.40 23.00,35.40" fill="rgb(178,109,58)"/><polygon points="204.70,55.85 202.04,52.39 187.52,51.20" fill="rgb(115,55,24)"/><polygon points="101.00,32.02 64.00,32.02 101.00,34.83" fill="rgb(178,109,58)"/><polygon points="173.00,33.30 101.00,35.40 173.00,36.75" fill="rgb(178,109,59)"/><polygon points="191.41,29.04 173.00,30.57 189.40,34.71" fill="rgb(182,113,61)"/><polygon points="214.95,27.08 198.01,25.33 200.60,28.28" fill="rgb(186,116,64)"/><polygon points="64.00,37.92 23.00,35.40 23.00,37.92" fill="rgb(178,109,58)"/><polygon points="197.09,51.98 188.78,47.69 173.00,50.01" fill="rgb(117,56,24)"/><polygon points="173.00,50.01 188.78,47.69 173.00,45.13" fill="rgb(127,63,28)"/><polygon points="173.00,30.57 173.00,35.41 189.40,34.71" fill="rgb(181,112,61)"/><polygon points="198.01,25.33 214.95,27.08 225.43,22.07" fill="rgb(182,113,61)"/><polygon points="173.00,36.75 101.00,35.40 101.00,37.92" fill="rgb(178,109,59)"/><polygon points="238.40,16.84 258.00,16.96 258.00,11.13" fill="rgb(181,112,61)"/><polygon points="238.68,63.78 258.00,69.34 258.00,63.54" fill="rgb(120,58,25)"/><polygon points="101.00,34.83 64.00,32.02 64.00,34.83" fill="rgb(178,109,58)"/><polygon points="202.04,52.39 204.70,55.85 216.56,53.58" fill="rgb(115,55,24)"/><polygon points="216.56,53.58 204.70,55.85 227.09,58.64" fill="rgb(126,62,27)"/><polygon points="64.00,40.45 64.00,37.92 23.00,37.92" fill="rgb(178,109,58)"/><polygon points="173.00,40.45 101.00,42.98 173.00,44.15" fill="rgb(143,77,37)"/><polygon points="173.00,40.45 173.00,36.75 101.00,37.92" fill="rgb(164,96,50)"/><polygon points="205.15,32.79 209.83,27.51 191.41,29.04" fill="rgb(177,108,58)"/><polygon points="242.49,20.10 238.40,16.84 225.43,22.07" fill="rgb(187,118,64)"/><polygon points="238.68,63.78 243.39,60.55 227.09,58.64" fill="rgb(107,51,21)"/><polygon points="64.00,40.45 23.00,37.92 23.00,40.45" fill="rgb(178,109,58)"/><polygon points="101.00,40.45 173.00,40.45 101.00,37.92" fill="rgb(178,109,58)"/><polygon points="101.00,34.83 64.00,34.83 101.00,37.64" fill="rgb(178,109,58)"/><polygon points="191.41,29.04 189.40,34.71 205.15,32.79" fill="rgb(180,111,60)"/><polygon points="238.40,16.84 242.49,20.10 258.00,16.96" fill="rgb(186,117,64)"/><polygon points="243.39,60.55 238.68,63.78 258.00,63.54" fill="rgb(95,45,18)"/><polygon points="204.32,46.20 188.78,47.69 197.09,51.98" fill="rgb(126,62,27)"/><polygon points="188.78,47.69 188.23,43.15 173.00,45.13" fill="rgb(138,72,34)"/><polygon points="173.00,40.24 189.40,34.71 173.00,35.41" fill="rgb(181,112,61)"/><polygon points="101.00,37.64 64.00,34.83 64.00,37.64" fill="rgb(178,109,58)"/><polygon points="214.95,27.08 229.30,25.89 225.43,22.07" fill="rgb(177,109,58)"/><polygon points="197.09,51.98 221.17,53.95 204.32,46.20" fill="rgb(134,69,32)"/><polygon points="188.23,43.15 173.00,40.24 173.00,45.13" fill="rgb(126,62,27)"/><polygon points="227.09,58.64 231.07,54.76 216.56,53.58" fill="rgb(131,67,30)"/><polygon points="242.49,20.10 225.43,22.07 229.30,25.89" fill="rgb(177,108,58)"/><polygon points="243.39,60.55 231.07,54.76 227.09,58.64" fill="rgb(134,69,32)"/><polygon points="204.32,46.20 188.23,43.15 188.78,47.69" fill="rgb(136,71,33)"/><polygon points="233.35,31.70 209.83,27.51 205.15,32.79" fill="rgb(174,105,56)"/><polygon points="199.76,38.02 189.40,34.71 173.00,40.24" fill="rgb(167,99,52)"/><polygon points="205.15,32.79 189.40,34.71 199.76,38.02" fill="rgb(167,99,52)"/><polygon points="101.00,40.45 101.00,37.64 64.00,37.64" fill="rgb(178,109,58)"/><polygon points="258.00,16.96 242.49,20.10 258.00,20.23" fill="rgb(180,110,60)"/><polygon points="243.39,60.55 258.00,63.54 258.00,60.25" fill="rgb(117,56,24)"/><polygon points="209.83,27.51 233.35,31.70 233.91,25.50" fill="rgb(166,98,51)"/><polygon points="188.23,43.15 199.76,38.02 173.00,40.24" fill="rgb(153,86,43)"/><polygon points="221.17,53.95 227.54,48.66 204.32,46.20" fill="rgb(141,75,36)"/><polygon points="199.76,38.02 188.23,43.15 204.32,46.20" fill="rgb(151,85,42)"/><polygon points="221.17,53.95 233.91,54.99 227.54,48.66" fill="rgb(145,79,39)"/><polygon points="101.00,40.45 64.00,37.64 64.00,40.45" fill="rgb(178,109,58)"/><polygon points="243.65,24.69 242.49,20.10 229.30,25.89" fill="rgb(172,104,55)"/><polygon points="205.15,32.79 199.76,38.02 219.12,35.91" fill="rgb(167,99,52)"/><polygon points="233.35,31.70 205.15,32.79 219.12,35.91" fill="rgb(164,97,51)"/><polygon points="258.00,20.23 242.49,20.10 243.65,24.69" fill="rgb(171,103,55)"/><polygon points="199.76,38.02 204.32,46.20 223.83,42.37" fill="rgb(151,85,43)"/><polygon points="204.32,46.20 227.54,48.66 223.83,42.37" fill="rgb(150,83,42)"/><polygon points="231.07,54.76 243.39,60.55 258.00,56.96" fill="rgb(139,74,35)"/><polygon points="223.83,42.37 219.12,35.91 199.76,38.02" fill="rgb(157,90,46)"/><polygon points="244.72,51.04 227.54,48.66 233.91,54.99" fill="rgb(147,81,40)"/><polygon points="243.39,60.55 258.00,60.25 258.00,56.96" fill="rgb(117,56,24)"/><polygon points="233.35,31.70 219.12,35.91 238.32,37.70" fill="rgb(159,92,47)"/><polygon points="233.91,25.50 233.35,31.70 258.00,30.75" fill="rgb(164,96,50)"/><polygon points="219.12,35.91 223.83,42.37 238.32,37.70" fill="rgb(157,90,46)"/><polygon points="227.54,48.66 240.87,44.80 223.83,42.37" fill="rgb(150,83,42)"/><polygon points="243.65,24.69 258.00,23.50 258.00,20.23" fill="rgb(182,113,61)"/><polygon points="227.54,48.66 244.72,51.04 240.87,44.80" fill="rgb(152,86,43)"/><polygon points="258.00,56.96 244.72,51.04 233.91,54.99" fill="rgb(152,86,43)"/><polygon points="223.83,42.37 240.87,44.80 238.32,37.70" fill="rgb(155,88,45)"/><polygon points="258.00,30.75 258.00,23.50 233.91,25.50" fill="rgb(157,90,46)"/><polygon points="258.00,30.75 233.35,31.70 238.32,37.70" fill="rgb(159,92,47)"/><polygon points="240.87,44.80 244.72,51.04 258.00,47.48" fill="rgb(152,86,43)"/><polygon points="238.32,37.70 240.87,44.80 258.00,38.00" fill="rgb(155,88,45)"/><polygon points="244.72,51.04 258.00,56.96 258.00,47.48" fill="rgb(156,89,45)"/><polygon points="238.32,37.70 258.00,38.00 258.00,30.75" fill="rgb(155,88,45)"/><polygon points="258.00,38.00 240.87,44.80 258.00,47.48" fill="rgb(155,88,45)"/></svg>